<svg xmlns="http://www.w3.org/2000/svg" viewBox="0 0 1332.07 458.33"><defs><style>.cls-1{fill:#5900ff;}.cls-2{fill:none;stroke:#5900ff;stroke-miterlimit:10;stroke-width:4px;}.cls-3{fill:#fff;}</style></defs><g id="Vrstva_2" data-name="Vrstva 2"><g id="Vrstva_2-2" data-name="Vrstva 2"><rect class="cls-1" x="0.07" y="197.33" width="348" height="36" rx="12"/><rect class="cls-1" x="391.07" y="0.33" width="815" height="71" rx="12"/><path class="cls-1" d="M1326.12,327.33H1248a6,6,0,0,1-5.94-5.94V310.11a10.81,10.81,0,0,1,10.78-10.78h68.3a11,11,0,0,1,10.92,10.93v11.13A6,6,0,0,1,1326.12,327.33Z"/><rect class="cls-1" x="1254.07" y="345.33" width="66" height="58.83" rx="12"/><rect class="cls-1" x="477.07" y="140.17" width="309.69" height="246" rx="12"/><line class="cls-2" x1="1255.07" y1="422.83" x2="1321.07" y2="422.83"/><line class="cls-2" x1="837.07" y1="143.33" x2="1132.07" y2="143.33"/><line class="cls-2" x1="837.07" y1="203.08" x2="1132.07" y2="203.08"/><line class="cls-2" x1="837.07" y1="262.83" x2="1132.07" y2="262.83"/><line class="cls-2" x1="837.07" y1="322.58" x2="1132.07" y2="322.58"/><line class="cls-2" x1="837.07" y1="382.33" x2="1132.07" y2="382.33"/><rect class="cls-1" x="30.07" y="292.17" width="136.64" height="111" rx="12"/><line class="cls-2" x1="188.91" y1="294.78" x2="319.07" y2="294.78"/><line class="cls-2" x1="188.91" y1="321.14" x2="319.07" y2="321.14"/><line class="cls-2" x1="188.91" y1="347.5" x2="319.07" y2="347.5"/><line class="cls-2" x1="188.91" y1="373.87" x2="319.07" y2="373.87"/><line class="cls-2" x1="188.91" y1="400.23" x2="319.07" y2="400.23"/><line class="cls-2" x1="1255.07" y1="432.33" x2="1309.07" y2="432.33"/><line class="cls-2" x1="1255.07" y1="441.33" x2="1316.07" y2="441.33"/><path class="cls-3" d="M1194.25,1a11,11,0,0,1,11,11V446a11,11,0,0,1-11,11H404a11,11,0,0,1-11-11V12A11,11,0,0,1,404,1h790.22m0-1H404a12,12,0,0,0-12,12V446a12,12,0,0,0,12,12h790.22a12,12,0,0,0,12-12V12a12,12,0,0,0-12-12Z"/><path class="cls-3" d="M1320.07,299.33a11,11,0,0,1,11,11v136a11,11,0,0,1-11,11h-66a11,11,0,0,1-11-11v-136a11,11,0,0,1,11-11h66m0-1h-66a12,12,0,0,0-12,12v136a12,12,0,0,0,12,12h66a12,12,0,0,0,12-12v-136a12,12,0,0,0-12-12Z"/><path class="cls-3" d="M337.33,197.33a11,11,0,0,1,11,11v238a11,11,0,0,1-11,11H12a11,11,0,0,1-11-11v-238a11,11,0,0,1,11-11H337.33m0-1H12a12,12,0,0,0-12,12v238a12,12,0,0,0,12,12H337.33a12,12,0,0,0,12-12v-238a12,12,0,0,0-12-12Z"/></g></g></svg>