<svg xmlns="http://www.w3.org/2000/svg" viewBox="0 0 911.47 994.3"><defs><style>.cls-1{fill:#fff;}</style></defs><g id="Vrstva_2" data-name="Vrstva 2"><g id="Vrstva_1-2" data-name="Vrstva 1"><path class="cls-1" d="M38.08,772.7A42.59,42.59,0,0,0,40.92,789a24.81,24.81,0,0,0,9.82,11.41q7,4.53,19.33,6.7t31.6,2.16a300.83,300.83,0,0,0,30.81-1.57q15.32-1.58,29.44-3.94,13.52-2.25,24.5-4.33a1.06,1.06,0,0,1,1.24.82l6.42,29.63a1.06,1.06,0,0,1-.8,1.27q-13.11,3-28.22,5.47-15.7,2.57-32.18,4t-32.58,1.47q-27.28,0-46.42-4.52t-31-13.29A51.76,51.76,0,0,1,5.5,802.71Q0,789.83,0,772.7q0-16.92,5.5-29.82a52.48,52.48,0,0,1,17.37-21.74q11.86-8.85,31-13.28t46.42-4.43q16.08,0,32.58,1.47t32.18,3.94q15.12,2.37,28.24,5.56a1.08,1.08,0,0,1,.79,1.27l-6.43,29.62a1.07,1.07,0,0,1-1.25.83q-11-2.25-24.49-4.42-14.13-2.25-29.44-3.83a300.83,300.83,0,0,0-30.81-1.58q-19.24,0-31.6,2.17t-19.33,6.69a25,25,0,0,0-9.82,11.31A41.87,41.87,0,0,0,38.08,772.7Z"/><path class="cls-1" d="M359.46,706.56l-.46,5.07a1.19,1.19,0,0,1-.16.48l-80,127a1.08,1.08,0,0,1-.91.5H234.56a1.08,1.08,0,0,1-.9-1.66l86.53-132.07a1.08,1.08,0,0,1,.9-.48h37.3A1.07,1.07,0,0,1,359.46,706.56ZM417,813H277.42a1.07,1.07,0,0,1-1.07-1.07V787.54a1.07,1.07,0,0,1,1.07-1.07H417a1.07,1.07,0,0,1,1.07,1.07V812A1.07,1.07,0,0,1,417,813Zm-4.54,26.07-80-127a1,1,0,0,1-.16-.54l-.16-5.1a1.07,1.07,0,0,1,1.07-1.1h37.57a1.08,1.08,0,0,1,.9.48L458,838a1.07,1.07,0,0,1-.9,1.66H413.35A1.08,1.08,0,0,1,412.44,839.11Z"/><path class="cls-1" d="M540.44,839.61H504.5a1.07,1.07,0,0,1-1.07-1.08V706.47a1.07,1.07,0,0,1,1.07-1.07H680.38a1.07,1.07,0,0,1,1.07,1.07V737a1.07,1.07,0,0,1-1.07,1.07H542.58a1.07,1.07,0,0,0-1.07,1.07v24.43a1.07,1.07,0,0,0,1.07,1.07H676.65a1.07,1.07,0,0,1,1.07,1.07v28a1.07,1.07,0,0,1-1.07,1.07H542.58a1.07,1.07,0,0,0-1.07,1.07v42.72A1.07,1.07,0,0,1,540.44,839.61Z"/><path class="cls-1" d="M910.4,839.61H734.53a1.07,1.07,0,0,1-1.07-1.08V706.47a1.07,1.07,0,0,1,1.07-1.07H910.4a1.06,1.06,0,0,1,1.07,1.07v28a1.06,1.06,0,0,1-1.07,1.07H772.6a1.07,1.07,0,0,0-1.07,1.08v21.86a1.07,1.07,0,0,0,1.07,1.07H906.67a1.07,1.07,0,0,1,1.08,1.07V783a1.07,1.07,0,0,1-1.08,1.07H772.6a1.07,1.07,0,0,0-1.07,1.07v23.25a1.07,1.07,0,0,0,1.07,1.07H910.4a1.06,1.06,0,0,1,1.07,1.07v28A1.07,1.07,0,0,1,910.4,839.61ZM838.75,666.83h40.69a1.07,1.07,0,0,1,.68,1.89L846.81,696.1a1.09,1.09,0,0,1-.68.24H814.72a1.06,1.06,0,0,1-.8-1.77l24-27.38A1.05,1.05,0,0,1,838.75,666.83Z"/><path class="cls-1" d="M4.36,991.94V906.45a1.06,1.06,0,0,1,1.07-1.07H85.61A51.51,51.51,0,0,1,99.32,907a24.16,24.16,0,0,1,9.42,4.76,18.72,18.72,0,0,1,5.39,7.84,31.75,31.75,0,0,1,1.73,11q0,8.36-3.14,14a19.19,19.19,0,0,1-9.81,8.42q-6.66,2.76-17.3,2.76H9.27a1.07,1.07,0,0,0-1.07,1.07v35.12A1.07,1.07,0,0,1,7.13,993H5.43A1.06,1.06,0,0,1,4.36,991.94Zm81.89-83h-77a1.06,1.06,0,0,0-1.07,1.07v41a1.07,1.07,0,0,0,1.07,1.07h77q13.71,0,19.74-5.07t6-16.52q0-11.43-6-16.51T86.25,909Z"/><path class="cls-1" d="M159,993h-1.7a1.07,1.07,0,0,1-1.07-1.07V906.45a1.07,1.07,0,0,1,1.07-1.07H159a1.07,1.07,0,0,1,1.07,1.07v85.49A1.07,1.07,0,0,1,159,993Z"/><path class="cls-1" d="M211.13,989.42H314.46a1.07,1.07,0,0,1,1.07,1.07v1.45a1.07,1.07,0,0,1-1.07,1.07H207.28a1.07,1.07,0,0,1-1.07-1.07V906.45a1.07,1.07,0,0,1,1.07-1.07H209a1.06,1.06,0,0,1,1.07,1.07v81.9A1.07,1.07,0,0,0,211.13,989.42Z"/><path class="cls-1" d="M416.33,905.86l0,0a1.07,1.07,0,0,1,0,1.23l-63.69,85.44a1.1,1.1,0,0,1-.86.43H349.7a1.07,1.07,0,0,1-.86-1.71l63.65-85.49a1.07,1.07,0,0,1,.85-.43h2.1A1.07,1.07,0,0,1,416.33,905.86Zm44.11,63.77H369.92a1.07,1.07,0,0,1-1.07-1.07V967.1a1.07,1.07,0,0,1,1.07-1.07h90.52a1.07,1.07,0,0,1,1.07,1.07v1.46A1.07,1.07,0,0,1,460.44,969.63Zm17.41,23-63.73-85.49a1.06,1.06,0,0,1-.08-1.16h0a1.08,1.08,0,0,1,.94-.55h2a1.07,1.07,0,0,1,.86.43l63.64,85.49a1.07,1.07,0,0,1-.86,1.71h-1.94A1.07,1.07,0,0,1,477.85,992.58Z"/><path class="cls-1" d="M548.23,909H496.67a1.07,1.07,0,0,1-1.07-1.08v-1.45a1.07,1.07,0,0,1,1.07-1.07h109.1a1.06,1.06,0,0,1,1.07,1.07v1.45a1.07,1.07,0,0,1-1.07,1.08H554.22a1.07,1.07,0,0,0-1.08,1.07v81.89a1.06,1.06,0,0,1-1.07,1.07h-1.7a1.07,1.07,0,0,1-1.07-1.07V910.05A1.06,1.06,0,0,0,548.23,909Z"/><path class="cls-1" d="M756.11,993H648.92a1.07,1.07,0,0,1-1.07-1.07V906.45a1.07,1.07,0,0,1,1.07-1.07H756.11a1.07,1.07,0,0,1,1.07,1.07v1.45a1.07,1.07,0,0,1-1.07,1.08H652.77a1.06,1.06,0,0,0-1.07,1.07v35a1.07,1.07,0,0,0,1.07,1.07H753.54a1.07,1.07,0,0,1,1.07,1.07v1.46a1.07,1.07,0,0,1-1.07,1.07H652.77a1.07,1.07,0,0,0-1.07,1.07v37.57a1.07,1.07,0,0,0,1.07,1.07H756.11a1.07,1.07,0,0,1,1.07,1.07v1.45A1.07,1.07,0,0,1,756.11,993Z"/><path class="cls-1" d="M908.92,971.68a21,21,0,0,1-2.43,10.48q-2.44,4.3-8.33,7t-16,3.92a218.79,218.79,0,0,1-25.44,1.22q-9,0-19.29-.71t-19.93-2q-8.92-1.19-15.76-2.5a1.05,1.05,0,0,1-.84-1.24l.26-1.48a1.07,1.07,0,0,1,1.26-.86q5.13,1,11.62,1.9,7.17,1,14.93,1.68t15,1.15q7.23.45,12.75.45a224.38,224.38,0,0,0,24.73-1.09q9.5-1.1,14.62-3.41t7-5.91a17.92,17.92,0,0,0,1.93-8.61q0-7.32-2.76-11a15.66,15.66,0,0,0-8.2-5.34,75.76,75.76,0,0,0-13.39-2.57l-51.53-6A116.55,116.55,0,0,1,814,944a22,22,0,0,1-10.64-5.78q-3.92-4.05-3.91-12t4.49-13q4.49-4.89,15.38-7t30-2.12q6.78,0,14.29.45t15.06,1.16q7.56.7,14.41,1.67,6.23.87,11.23,1.91a1.06,1.06,0,0,1,.83,1.23l-.27,1.5a1.06,1.06,0,0,1-1.26.86q-5.13-1-11.62-1.9-7.17-1-14.93-1.67t-14.93-1.16c-4.78-.3-9.06-.45-12.81-.45a212.25,212.25,0,0,0-23.27,1q-9,1-14,3.27t-6.85,5.79a17.36,17.36,0,0,0-1.92,8.41q0,6.3,3.07,9.64a17.57,17.57,0,0,0,8.84,4.82,115.31,115.31,0,0,0,13.85,2.51l49.47,5.78q6.41.76,12,1.8a32.32,32.32,0,0,1,9.68,3.27,16,16,0,0,1,6.4,6.43Q908.92,964.61,908.92,971.68Z"/><path class="cls-1" d="M283.7,356.15A59.68,59.68,0,0,0,290.21,375c1.61,2.95,3.67,5.7,5,8.82a36.55,36.55,0,0,1,2.09,9.48c.84,7.11,2.12,14.07,3.61,21.07.34,1.62.68,3.25,1,4.87s.52,3.53.82,5.3c.6,3.43,2.32,6.8,3.66,10,5.51,13.13,10.54,26.47,15.94,39.66q8.25,20.15,16.8,40.18c10.2,23.84,21.4,47.85,39.12,67.14a109.51,109.51,0,0,0,27.5,22A85.83,85.83,0,0,0,422,610.44a107.86,107.86,0,0,0,20.4,3.87,408.39,408.39,0,0,0,42,2.27A210.26,210.26,0,0,0,525,613.13c3.14-.62,6.25-1.33,9.34-2.15s1.77-5.59-1.31-4.77c-26.14,6.92-53.64,6-80.37,4-13-1-25.93-2.4-37.92-7.76a98,98,0,0,1-27.88-19.2c-18.3-17.67-30-40.68-40.16-63.7-11.35-25.81-21.93-52-32.3-78.19-1.26-3.2-2.53-6.38-3.85-9.55s-2.84-6.3-3.18-9.65a101.53,101.53,0,0,0-2.06-10.62c-.72-3.39-1.43-6.79-2-10.21-1.14-6.64-1.1-13.64-3.79-19.91a94.68,94.68,0,0,0-4.8-8.57,53.86,53.86,0,0,1-3.88-8.67,58,58,0,0,1-2.35-9.38,2.49,2.49,0,0,0-3-1.73,2.53,2.53,0,0,0-1.73,3Z"/><path class="cls-1" d="M788,138.23a146.16,146.16,0,0,0-39.06,31.55,106.79,106.79,0,0,0-15,22.27c-4,8-6.78,16.64-9.73,25.07-11.89,34-21.71,69.54-41.72,99.92a163,163,0,0,1-17.11,21.48,281.52,281.52,0,0,0-19,22.93c-6,7.94-11.65,16.09-17.39,24.2a119.91,119.91,0,0,0-7.74,11.64,100.79,100.79,0,0,0-5.46,12.08C612.43,417.8,610,426.51,607,435c-3.32,9.38-7.23,18.55-10.67,27.89-5.79,15.75-11,31.68-16,47.68-4.71,15-9.32,30-14.65,44.82-5.82,16.11-19.42,27.53-28.4,41.73a67.8,67.8,0,0,0-5.72,11.23c-1.18,3,3.6,4.24,4.77,1.31,6.32-15.89,20-27.2,28.68-41.62,4.3-7.1,6.76-15,9.39-22.79,2.44-7.27,4.78-14.58,7.09-21.89,4.79-15.18,9.5-30.39,14.73-45.43,6.17-17.74,13.53-35,19.34-52.88,2.79-8.61,5.6-17.32,9.94-25.29a120.15,120.15,0,0,1,7.75-11.65c2.9-4.09,5.79-8.2,8.7-12.28,5.67-8,11.47-15.84,17.71-23.36,6-7.28,12.83-13.92,18.7-21.35,22.31-28.22,33.71-62.9,45.08-96.53,2.91-8.63,5.84-17.25,9-25.81s6.53-16.62,11.5-24.22c9.4-14.37,22.38-26.42,36.59-35.94q4.89-3.27,10-6.15c2.77-1.56.29-5.83-2.49-4.27Z"/><path class="cls-1" d="M707.75,157.92c10-21.66,19.32-43.65,29.67-65.16,5.12-10.64,10.5-21.17,16.34-31.43a284.16,284.16,0,0,1,18.72-29.27c6.23-8.39,14.7-17.43,25.79-18.25a2.53,2.53,0,0,0,2.47-2.47,2.49,2.49,0,0,0-2.47-2.47c-10.76.8-19.4,7.7-26.11,15.67-7.42,8.81-13.58,18.83-19.43,28.72C740.4,74.07,730.2,96,720.31,118.09c-5.59,12.45-11.09,24.95-16.82,37.34a2.54,2.54,0,0,0,.88,3.38,2.49,2.49,0,0,0,3.38-.89Z"/><path class="cls-1" d="M458.16,554.68a270.59,270.59,0,0,1-1.37-43.35,129.22,129.22,0,0,1,2.3-20.67,63.68,63.68,0,0,1,7.27-18.72c3.36-5.8,7.28-11.27,11.1-16.77s7.89-11.24,11.9-16.82q12-16.73,24.56-33.07,25.07-32.7,52.15-63.8t56-60.52c9.75-9.94,19.55-19.82,28.74-30.29A283.66,283.66,0,0,0,676,217.32q2.85-4.4,5.53-8.89c1.65-2.73-2.62-5.22-4.26-2.49A281.8,281.8,0,0,1,653,240.49c-8.94,10.8-18.69,20.9-28.5,30.92-19.43,19.82-38.53,39.92-56.88,60.76s-35.8,42-52.71,63.74-33.35,43.81-48.57,66.69a86.73,86.73,0,0,0-9.5,17.8,81.71,81.71,0,0,0-4.24,20.11,248.2,248.2,0,0,0-.42,43.36q.39,5.42,1,10.81a2.56,2.56,0,0,0,2.47,2.47,2.49,2.49,0,0,0,2.47-2.47Z"/><path class="cls-1" d="M800.9,12v0l-.64,1.1s-1.44.92-2,.59a2,2,0,0,0,.26,0c.27.08.53.15.79.24a13.87,13.87,0,0,1,1.78.81,14,14,0,0,1,4.18,3c2.49,2.87.34,7.8-.53,10.91-2.5,9-6.18,17.53-9.67,26.19s-6.61,17.56-7.43,26.93a49.48,49.48,0,0,0-.13,7.1c.13,2.38.54,4.73.56,7.11a72.82,72.82,0,0,1-1.64,13.47c-.91,5.09-1.82,10.32-1.16,15.5a23.5,23.5,0,0,0,2.2,7.46,6.6,6.6,0,0,1,.88,3.49,12,12,0,0,1-1.06,3.88,2.48,2.48,0,0,0,1.72,3,2.53,2.53,0,0,0,3-1.72,13.36,13.36,0,0,0,1-8.12,21.55,21.55,0,0,0-1.54-3.6,18,18,0,0,1-1-3.22c-1-4.52-.32-9.3.46-13.8.85-5,1.92-9.92,2.08-15a69.41,69.41,0,0,0-.48-7.49,49.68,49.68,0,0,1,0-7.32c.72-9.86,4.38-19.26,8.08-28.32S808,36.14,810.46,26.6a17.4,17.4,0,0,0,.54-8.32,10.72,10.72,0,0,0-4.32-5.88A23.09,23.09,0,0,0,801,9.28c-1.58-.6-4.45-1-4.81,1.4a2.54,2.54,0,0,0,1.72,3,2.49,2.49,0,0,0,3-1.73Z"/><path class="cls-1" d="M332.83,298.65c7.89-10.77,21.86-15.15,34.67-16,16.61-1.12,33.16,2.27,49.79,1.1,27.12-1.91,52.35-12.87,76.16-25.31,24.49-12.8,48.16-27.53,74.05-37.43a184,184,0,0,1,20.12-6.45c7.88-2,15.9-3.55,23.61-6.18,14.71-5,26.41-14.91,38.7-24.05,24.25-18.05,53.46-28.1,83.79-27.72,3.73,0,7.46.25,11.18.62,3,.29,7,.26,9.66,1.92s.45,6-.52,8.33a43.71,43.71,0,0,1-19.13,21.08c-6.69,3.68-14.07,4.9-21.57,5.78-8.19,1-16,2.33-23.69,5.47s-15,7-22.34,10.67l-47,23.38c-26.95,13.41-54.38,27-74.74,49.81-4.58,5.12-9,10.51-14.42,14.79-6,4.73-12.8,6.62-20.25,7.7-7.72,1.11-15,2.31-21.94,6.19-6.53,3.68-12.2,8.68-18.28,13a165.18,165.18,0,0,1-105.71,30.52c-3.17-.19-3.16,4.76,0,4.94A171.36,171.36,0,0,0,454,341.39a163.93,163.93,0,0,0,19.42-12c6.26-4.5,12.1-9.68,18.93-13.33,7.25-3.88,15.24-4.32,23.18-5.7a41.19,41.19,0,0,0,19.58-8.86c5.43-4.45,9.89-9.92,14.57-15.13a132.21,132.21,0,0,1,16.72-15.63c12.27-9.65,26-17.27,39.88-24.38,15.14-7.76,30.44-15.21,45.68-22.79l24.27-12.07c7.5-3.73,15-7.64,23.12-9.87s16.73-2.27,25-4a47,47,0,0,0,18.77-8.57,49.12,49.12,0,0,0,13-14.65c2.75-4.83,7.56-13.58,2.56-18.36-2.32-2.22-5.68-2.79-8.73-3.19q-5.73-.76-11.51-1.06a135.8,135.8,0,0,0-22.72.83,142.15,142.15,0,0,0-43.8,12.55,134.71,134.71,0,0,0-20,11.63c-6.43,4.52-12.51,9.5-18.88,14.11s-12.89,8.8-20.16,11.61c-7.84,3-16.11,4.69-24.26,6.68-27.8,6.82-53,20.63-77.9,34.29-24.39,13.38-49.27,27.17-76.76,32.94A123.13,123.13,0,0,1,413.7,279c-8.67.34-17.31-.41-25.95-1-15-1-30.57-1.06-44.4,5.79a40.42,40.42,0,0,0-14.79,12.36c-1.88,2.57,2.41,5,4.27,2.49Z"/><path class="cls-1" d="M435.45,350.24a141.82,141.82,0,0,1,11.19,18.17,50.47,50.47,0,0,1,5.11,20.49c.3,7.59-.21,15.31,1.68,22.75,1.79,7,5.55,13.36,8.6,19.89,3.21,6.85,5.7,14.76,3.09,22.21a2.47,2.47,0,0,0,4.77,1.32c2.48-7.09,1-14.85-1.69-21.65s-6.69-13-9.06-19.94c-2.52-7.37-2.2-15.05-2.39-22.73a65.34,65.34,0,0,0-1.14-11.6,54.12,54.12,0,0,0-3.36-10.32c-3.24-7.54-7.89-14.35-12.53-21.09a2.54,2.54,0,0,0-3.38-.88,2.49,2.49,0,0,0-.89,3.38Z"/><path class="cls-1" d="M361.7,259.68c2.31-3.62,6.78-3.78,10.78-3.63A165.16,165.16,0,0,1,389,257.39c6.49.9,12.92,1.86,19.47.91a58.44,58.44,0,0,0,15.65-5c10-4.51,19.42-10.54,30.39-12.43,6.21-1.07,12.36-1.58,17.77-5.15,2.6-1.71,4.92-3.78,7.37-5.68q3.43-2.64,7.1-4.94a94.39,94.39,0,0,1,36.73-13.5,2.49,2.49,0,0,0,1.73-3,2.53,2.53,0,0,0-3-1.72,97.69,97.69,0,0,0-33.92,11.62A113.44,113.44,0,0,0,473.07,229a27,27,0,0,1-7.38,4.6,44.79,44.79,0,0,1-9,2,66.07,66.07,0,0,0-9,1.82,71.64,71.64,0,0,0-7.92,2.94c-5.08,2.18-9.95,4.81-14.93,7.21a65,65,0,0,1-15.39,5.61c-6,1.21-12.14.45-18.18-.39a168.11,168.11,0,0,0-19.41-1.68c-5.59-.12-11.17,1.11-14.36,6.11-1.72,2.69,2.56,5.17,4.27,2.49Z"/><path class="cls-1" d="M522.68,210.56l64.49-31,32-15.4c10.28-4.95,20.49-10,31.48-13.19,12.11-3.51,24.64-5.44,36.55-9.67a2.52,2.52,0,0,0,1.72-3,2.48,2.48,0,0,0-3-1.72c-10.66,3.78-21.83,5.73-32.74,8.61-11.19,3-21.63,7.6-32,12.61l-64.47,31-36.47,17.54a2.5,2.5,0,0,0-.89,3.38,2.53,2.53,0,0,0,3.38.89Z"/><path class="cls-1" d="M658.58,164.27a64.92,64.92,0,0,1,8.7-2.72c1.1-.24,2.2-.45,3.31-.63l.69-.1.33,0s-.4.06-.11,0l1.46-.18a33,33,0,0,0,10.95-2.81,53.84,53.84,0,0,0,8.46-5.39,2.54,2.54,0,0,0,.88-3.38,2.48,2.48,0,0,0-3.38-.89,57.34,57.34,0,0,1-7.51,4.91,18.45,18.45,0,0,1-4.92,1.9c-.77.19-1.56.33-2.35.46l-.37.05.18,0-.57.07-1.27.15c-2.06.24-4.11.5-6.14.92a62.38,62.38,0,0,0-9.65,2.92,2.55,2.55,0,0,0-1.73,3,2.49,2.49,0,0,0,3,1.73Z"/><path class="cls-1" d="M690.14,152.06c2.17-15.06,4.35-30.13,7.34-45A276.24,276.24,0,0,1,709.6,63.32,177.14,177.14,0,0,1,730.4,24,166.69,166.69,0,0,1,744.15,7a11.08,11.08,0,0,1,1.73-1.76,1.12,1.12,0,0,1,1-.23,3.72,3.72,0,0,1,2.19,2.12c1.36,3-.84,6.8-1.74,9.59-2.48,7.72-.31,15.52.62,23.29.63,5.22.54,11.54-2.9,15.88a10.12,10.12,0,0,1-2.85,2.44c-2.74,1.6-.26,5.88,2.5,4.26,5.74-3.35,8-9.87,8.42-16.21.48-7.74-2.39-15.25-2-23,.34-7,7-15.52.15-21.45a6.51,6.51,0,0,0-9.77.63c-2.67,2.78-5.17,5.73-7.6,8.72A177.69,177.69,0,0,0,709.15,51.5a244.63,244.63,0,0,0-14.67,45.85c-3.5,15.66-5.94,31.53-8.24,47.4-.29,2-.58,4-.86,6a2.55,2.55,0,0,0,1.72,3,2.48,2.48,0,0,0,3-1.72Z"/><path class="cls-1" d="M304.5,381.72c14.86,40.32,31.12,80.19,51.34,118.16,9.87,18.52,20.61,36.56,32,54.18,12.22,18.87,24.59,38.62,41.44,53.76,8.45,7.59,18,13.76,28.78,17.37a41.56,41.56,0,0,0,7.93,1.87c2.9.35,5.84.07,8.7.79a72.28,72.28,0,0,0,18.39,2.63c12.8,0,25.66-1.57,38.45-2.22,13.27-.68,26.55-1.14,39.84-1.49,52.54-1.36,105.13-1.73,157.68-2.49,26.38-.39,52.77-.85,79.15-1.14,25.91-.3,54.1-2.62,79.89.11,6.56.7,12.29,1.49,18.79,2.56,3.12.51,2.21-5.29-.92-5.8-50.72-8.3-101.85-1.78-153-1-52,.76-104,1.4-156,2.31-26.18.45-52.37,1.14-78.5,2.76-12.47.77-25.84,3.12-38.17.25-2.62-.61-5.09-1.54-7.78-1.81-2.86-.28-5.66-.13-8.49-.75A59.71,59.71,0,0,1,447.24,615c-20.14-11.61-33.87-31.53-46.55-50.41C389,547.13,377.86,529.33,367.57,511,347,474.4,330.25,435.88,315.33,396.64q-3.07-8.1-6.07-16.24c-1.09-3-5.87-1.68-4.76,1.32Z"/><path class="cls-1" d="M460,554.6c-.54-14.69-.48-29.65,2.95-44a75.74,75.74,0,0,1,8-20.5,97.12,97.12,0,0,1,13.27-17.21c5.13-5.53,10.55-10.78,15.59-16.37s9.95-11.73,14.54-17.89c9.35-12.53,17.79-25.69,26.76-38.49,15.93-22.75,34.4-43.43,53.44-63.59,18.73-19.83,37.94-39.25,55.55-60.11,17.31-20.51,33.12-42.52,44.54-66.89q2.13-4.57,4.07-9.23a2.5,2.5,0,0,0-1.73-3,2.53,2.53,0,0,0-3,1.73c-10.38,24.84-25.56,47.39-42.55,68.17C634,288.32,614.87,307.89,596,327.7s-37.46,40-53.65,62.07c-9.3,12.7-17.78,26-26.89,38.81-4.52,6.36-9.19,12.61-14.19,18.59-4.86,5.81-10.11,11.24-15.38,16.67A166.55,166.55,0,0,0,471.3,480.5a75.76,75.76,0,0,0-10.43,19.59c-5,13.89-6.14,28.92-6.09,43.57,0,3.65.11,7.3.24,10.94.12,3.18,5.06,3.19,5,0Z"/><path class="cls-1" d="M326.49,289c-3.85,2.09-6.53,7.06-5,11.39.85,2.34,3.24,5.25,5.9,5.45a9.71,9.71,0,0,0,7.74-3.56c4.08-4.7,3.95-11.38,5.61-17.09a47.42,47.42,0,0,1,6.7-14.22,26.81,26.81,0,0,1,12.74-10.12,2.53,2.53,0,0,0,1.73-3,2.5,2.5,0,0,0-3-1.73c-7.22,2.51-12.86,7.8-16.89,14.19a52.07,52.07,0,0,0-4.95,10.35A75,75,0,0,0,334.23,292c-.68,3.53-2.22,9.06-6.8,8.84l1.25.34a5.55,5.55,0,0,1-2.3-2c-.24-.43,0,.05-.17-.38a6.14,6.14,0,0,1-.18-.74c.07.44,0-.26,0-.35a4.35,4.35,0,0,1,0-.51q-.06.3,0,0a5.39,5.39,0,0,1,2.93-4c2.79-1.52.3-5.79-2.5-4.27Z"/><path class="cls-1" d="M363.07,355.89c.15,0,.91,0,.55-.05s.1.06.12.07a1.28,1.28,0,0,1-.23-.14s.19.21-.11-.1-.41-.41-.6-.64,0,0,0,0a2.73,2.73,0,0,1-.21-.3c-.16-.26-.33-.51-.48-.77s-.25-.46-.37-.7-.36-.79-.31-.65a14.88,14.88,0,0,1-.56-1.67c-.07-.26-.14-.51-.19-.77s0-.25-.08-.38c-.15-.76,0,.24,0-.19a6.83,6.83,0,0,1,0-1.43c-.05.44,0,.14.06-.08s0,.11-.05.11c.41-.17.74-.65,1.19-.84a5,5,0,0,1,2-.31,8.09,8.09,0,0,1,4,1.25c3.17,1.86,5.75,4.55,9,6.34,6.49,3.59,14.06,4.74,21.4,4.63a58.56,58.56,0,0,0,11.28-1.14,78.48,78.48,0,0,0,9.57-3,38.7,38.7,0,0,1,11-2.55,13.3,13.3,0,0,0,4.39-.73c.61-.24,1.22-.49,1.84-.71.28-.1.58-.16.86-.26s.2-.15,0,0-.21,0-.09,0q1.49,0-1.9-1.95c.1,3.18,5,3.19,4.94,0a3,3,0,0,0-3.6-2.94,16.69,16.69,0,0,0-3.76,1.22c-.27.1-.54.2-.81.28s-.78.14-.23.1c-1,.07-2.08,0-3.12.14a36.87,36.87,0,0,0-6.16,1.12c-3.62,1-7.08,2.46-10.66,3.54a47.42,47.42,0,0,1-12,1.86c-8,.32-16.35-.78-23.06-5.5-3.37-2.38-6.4-5.6-10.62-6.42-3.44-.66-8.05.05-9.83,3.51-1.49,2.88-.23,6.66,1,9.4s3.62,5.83,7.12,5.35c1.32-.18,2-1.87,1.72-3a2.53,2.53,0,0,0-3-1.72Z"/><path class="cls-1" d="M465.72,452.56c-2.42,4.18-5,8.28-7.72,12.26-1.27,1.85-2.58,3.68-3.86,5.25-.59.72-1.21,1.44-1.86,2.11-.27.29-.55.57-.85.84l-.4.36c-.52.46.19-.1-.13.1s-.48.26-.69.41c.47-.34.46-.16.18-.1s.69,0,.29,0a2.6,2.6,0,0,1,1.08.45c.16.15.49.71.25.34a1.5,1.5,0,0,1-.09-.42c.17.68,0,.19,0,0a12.68,12.68,0,0,1,.11-1.85,17.88,17.88,0,0,1,1.91-4.64q4.21-8.42,9-16.54c12.65-21.7,27.89-41.77,44.27-60.77s34-37.05,51.67-54.93c17-17.22,34.16-34.32,50.36-52.33,15.21-16.91,29.67-34.68,41.53-54.14,1.38-2.26,2.71-4.54,4-6.84,1.57-2.77-2.7-5.26-4.27-2.49A271.05,271.05,0,0,1,632,247.74c-7,9.38-14.43,18.37-22.15,27.14-8,9.14-16.39,18-24.84,26.79-8.75,9.07-17.63,18-26.49,27s-17.94,18.17-26.77,27.4-17.71,18.83-26.2,28.58-16.7,19.8-24.44,30.17a360.7,360.7,0,0,0-21.53,32.14q-4.89,8.25-9.24,16.81c-1.61,3.18-3.47,6.38-3.39,10.07,0,1.82.53,3.77,2.34,4.58,3.36,1.5,6.67-2.81,8.47-5a123.39,123.39,0,0,0,8.76-12.62q1.77-2.81,3.43-5.69c1.6-2.75-2.67-5.24-4.27-2.49Z"/><path class="cls-1" d="M533.21,606.65c-7.47,2.94-15.35,4.33-23.25,5.46-8.59,1.22-17.2,2.31-25.81,3.32q-25.62,3-51.36,4.88-51,3.69-102.09,2.92c-17.23-.26-34.43-1-51.63-1.92-16.92-.93-33.86-1.91-50.81-1.62C211,620,193.82,621.92,176.6,623a349.79,349.79,0,0,1-50.25-1.08c-19.23-1.61-38.31-2.53-57.6-1.61s-38.63,3.05-57.89,5.19c-3.12.35-3.16,5.3,0,4.95,34.37-3.82,68.68-7.21,103.27-4.58,17,1.29,34,3.07,51.1,2.58s34.41-2.5,51.64-3.38c34.15-1.75,68.35,2.06,102.48,2.91q51.58,1.3,103.14-2,28.83-1.83,57.56-5.1,14.18-1.61,28.3-3.57c8.88-1.22,17.78-2.56,26.17-5.86,2.92-1.16,1.65-5.94-1.31-4.77Z"/><path class="cls-1" d="M357.77,254.9a2.73,2.73,0,0,1,1.82,1.23c-.27-.49.08.59,0-.08s-.29-1.47-.38-2.22c-.34-2.84-.49-5.72-.66-8.58q-.22-3.5-.43-7a10.71,10.71,0,0,1,0-3.39c.19-.67.43-1.28.58-2,.37-1.7.61-3.43.89-5.15a44.82,44.82,0,0,0,1-6.24c0-4.56-5.35-6.33-8.78-7.74l-.37,4.69,19.12-1.55,11.11-.89c3.82-.31,8.19-1.1,9.38-5.44.86-3.15-.39-6.32-1.56-9.22a32.27,32.27,0,0,1-2.28-9.39,31.67,31.67,0,0,1,4.48-19c1.88-3,5-5.45,6.17-8.84a9.29,9.29,0,0,0-1.07-8.64,18.46,18.46,0,0,0-5.54-4.62c-2.05-1.27-4.28-2.42-5.55-4.38-2-3-.94-8.09-1.46-11.71-.63-4.43-2.5-8.6-4.45-12.59-3.59-7.33-8.64-16.1-4.74-24.32l-4.95-.12c5.84,10.69-3.1,22.11-9.11,30.43s-12.24,16.58-19.41,24c-6.88,7.09-14.83,13.43-24,17.28-5.12,2.15-10.4,3.09-15.79,4.28s-10.63,3-14.42,7.21c-4.15,4.56-4.18,10.35-2.29,15.94,2,5.91,4.1,11.72,5.62,17.79a150.62,150.62,0,0,1,3.43,18.6,102.75,102.75,0,0,1,.88,18.38,25.39,25.39,0,0,1-1.9,8.6,81.56,81.56,0,0,1-4.29,7.91,49.65,49.65,0,0,0-5.72,16.62,130,130,0,0,0-1.44,17.64c-.17,5.67-.13,11.35.21,17a116.09,116.09,0,0,0,6.59,33.46A79.62,79.62,0,0,0,296,368c3,4.61,6.34,9,8.76,13.95a27.13,27.13,0,0,1,2.47,7.49c.51,3,5.84,2.78,5.27-.55-1.9-11.22-10.59-19.63-15.58-29.49-5.08-10-7.78-21.08-9.06-32.2a174.22,174.22,0,0,1-.31-34.25,58.7,58.7,0,0,1,3.59-17.29c2.21-5.5,6.17-10.19,7.93-15.88,1.81-5.89,1.49-12.19,1.11-18.26a153.64,153.64,0,0,0-2.34-18.87,148.8,148.8,0,0,0-4.69-18.33c-1-3-2.14-5.85-3.07-8.82-.84-2.65-1.45-5.51-.41-8.2,1.83-4.73,6.9-7.07,11.48-8.31,5.51-1.48,11.14-2.12,16.52-4.11,9.59-3.54,17.93-9.61,25.28-16.62,7.49-7.16,13.93-15.35,20-23.69,6.55-8.92,15-18.79,14.19-30.57a19.25,19.25,0,0,0-2.28-8c-1-1.88-4-2.19-4.95-.12-3.38,7.13-1.12,15.29,2,22.07,1.66,3.58,3.6,7,5.09,10.7a29.14,29.14,0,0,1,2.1,11c.06,3.67.39,7.26,2.79,10.22a22.86,22.86,0,0,0,5.95,4.66c1,.63,2,1.26,3,2a7.23,7.23,0,0,1,1.71,1.8c1.27,2.3-.13,5-1.92,7a35.32,35.32,0,0,0-8.53,18.31,37.6,37.6,0,0,0,2.63,19.88c.76,1.91,2.22,5.19.14,6.76a5.67,5.67,0,0,1-3.1.78l-9.51.77-21.92,1.77c-2.8.23-2.63,3.76-.37,4.69a26.13,26.13,0,0,1,4.28,1.92c.27.18.48.34.64.47s.34.54.23.2a8.19,8.19,0,0,1-.4,2.64c-.37,2.09-.68,4.19-1,6.29-.3,1.78-.66,2.37-1,4.19-.45,2.33,0,4.92.18,7.28.12,2,.24,4.08.38,6.12.17,2.67.29,5.39.71,8,.29,1.83,1.1,4.28,3.37,4.36,1.33,0,2.75-.56,2.86-2.07a2.8,2.8,0,0,0-2.5-2.8Z"/><path class="cls-1" d="M270.17,200.16c-.14-7.5-3.57-14.66-8.24-20.41-2.21-2.73-5-4.72-7.57-7.06-.6-.55-1.11-1.2-1.71-1.74s.38.58.38.67a1.92,1.92,0,0,0-.17-.39c-.15-.48-.33-.94-.46-1.43a24.43,24.43,0,0,1-.6-5.46c-.15-8.5.29-17,.46-25.54q.12-6.47.25-12.92a88.25,88.25,0,0,1,.78-11.83,30.92,30.92,0,0,1,9.77-18.28c4.88-4.5,10.8-7.73,16.84-10.36C294.58,79,310.86,74.78,327,76c13.61,1,27.44,6.33,36.9,16.41A37.6,37.6,0,0,1,367,96.15c.24.33,1,1.53.92.58s-1.29-2.48-1.84-3.24c-8.18-11.38-20.65-18.51-34.3-21.17-16.11-3.14-32.78.17-48,5.76-12.4,4.57-26.43,11.25-31.54,24.38-3,7.62-2.6,16.12-2.76,24.14L249,153c-.08,3.85-.41,7.84.34,11.65a23.12,23.12,0,0,0,5.56,10.63c2.38,2.66,5.48,4.54,7.89,7.17a17,17,0,0,1,3.88,8.11,26.39,26.39,0,0,1,.6,5.24c0,1,1,2.21,1.54,3,.16.23,1.37,1.74,1.37,1.39Z"/><path class="cls-1" d="M271,188.68c1.29,3.91-.63,7.82-2.72,11-2.4,3.69-5.36,7-7.52,10.86a35.45,35.45,0,0,0-3.14,27.08c1.38,4.63,3.59,9,4.81,13.67,1.29,4.94.94,9.87-.06,14.83s-2.48,9.95-3.17,15.05a74,74,0,0,0-.48,13.88c1,18.9,8.06,36.79,11.09,55.37a99,99,0,0,1,1.37,14.06c0,2.24,0,4.5-.19,6.74-.16,1.93-.13,4.43-1.16,6.14-.3.49-.42.47-1,.52a5.78,5.78,0,0,1-2.46-.45,11,11,0,0,1-4.51-3.4,18.68,18.68,0,0,1-3.93-11.17c-.2-4.84,1.27-9.68,3-14.14,1.89-4.78,4.07-9.46,6.27-14.11q6.7-14.18,14.63-27.74c1.29-2.2,2.6-4.4,3.94-6.58a1.45,1.45,0,0,0-1.26-2.21,3.81,3.81,0,0,0-3.35,1.91q-8.55,14-15.84,28.67-3.6,7.29-6.87,14.74c-2.16,4.9-4.3,9.94-5.19,15.26-1.37,8.32,1,18.94,9.55,22.54,4.55,1.9,10.2.23,12-4.59a24.15,24.15,0,0,0,1.14-7q.25-3.66.17-7.34c-.49-19.88-8.05-38.66-11.22-58.12-1.57-9.63-1.94-19.35.11-28.93,1.12-5.22,2.69-10.38,3.13-15.73a34.38,34.38,0,0,0-2.44-15.17c-1.73-4.67-3.72-9.18-4.3-14.18A32.78,32.78,0,0,1,263,216c1.5-4.39,4.16-8,6.88-11.71s5.48-7.46,6.31-11.93a12.57,12.57,0,0,0-.51-6.35c-.4-1.22-2.52-.64-3.25-.22a2.51,2.51,0,0,0-1.49,2.91Z"/><path class="cls-1" d="M274.75,195.53c1.43-7.45-2.43-14.07-5.89-20.36A56.69,56.69,0,0,1,262,154.09a104.91,104.91,0,0,1,.25-22.89,163.17,163.17,0,0,1,3.42-21.75c1.63-6.73,4.1-13.33,8.34-18.87S284.12,81,290.48,78.24c14.07-6.19,30.57-8.57,45.75-5.95,13.25,2.29,26,9.07,34.37,19.72a49.75,49.75,0,0,1,2.87,4.07c1.43,2.23,6.33,1.14,4.5-1.72-7.73-12.12-20.44-20.57-34.15-24.5-16.12-4.63-33.63-3.18-49.45,2-7,2.26-13.82,5.47-19.42,10.25a43.1,43.1,0,0,0-12.21,18c-2.57,6.9-3.82,14.21-4.8,21.48a164.78,164.78,0,0,0-1.85,23.68,65.11,65.11,0,0,0,4.1,23.21,92.69,92.69,0,0,0,5.2,10.29c1.72,3.17,3.52,6.54,4.12,10.14a14.16,14.16,0,0,1,0,5.11,2.53,2.53,0,0,0,2.06,2.71c1,.29,2.93.12,3.18-1.22Z"/></g></g></svg>