<?xml version="1.0" encoding="utf-8"?>
<!-- Generator: Adobe Illustrator 24.3.0, SVG Export Plug-In . SVG Version: 6.00 Build 0)  -->
<svg version="1.1" id="Vrstva_1" xmlns="http://www.w3.org/2000/svg" xmlns:xlink="http://www.w3.org/1999/xlink" x="0px" y="0px"
	 viewBox="0 0 445 539" style="enable-background:new 0 0 445 539;" xml:space="preserve">
<style type="text/css">
	.st0{fill:none;stroke:#FFFFFF;stroke-width:0.5;stroke-miterlimit:10;}
</style>
<g>
	<path class="st0" d="M71.12,241.54c15.16,0,30.11-0.27,45.04,0.19c3.57,0.11,7.13,2.53,10.59,4.09
		c11.17,5.05,22.3,10.19,34.37,15.72c-0.38-7.85-0.67-14.89-1.13-21.92c-0.05-0.84-0.94-1.68-1.56-2.42
		c-0.53-0.63-1.19-1.16-1.86-1.66c-10.41-7.81-17.67-19.86-30.59-24.13c-12.3-4.06-25-6.88-37.53-10.26
		c-13.33-3.59-26.68-7.09-39.94-10.92c-2.09-0.6-4.43-2.38-5.46-4.27c-9.69-17.8-19.7-35.47-28.34-53.78
		c-3.28-6.96-3.95-15.42-4.58-23.29c-2.01-25.17-4-50.36-4.83-75.58C4.99,23.53,7.77,13.62,10,3.75c0.96,8.69,1.95,17.37,2.86,26.06
		c2.81,26.78,5.58,53.56,8.39,80.34c0.14,1.3,0.31,2.73,0.93,3.84c7.13,12.74,14.34,25.44,21.74,38.51
		c3.65-4.07,5.29-7.58,3.13-12.97C41.19,124.88,35.93,110,30.62,95.15c-0.98-2.75-1.51-5.79-1.56-8.71
		c-0.15-8.48-0.58-17.02,0.27-25.43c0.84-8.34,2.76-16.62,4.8-24.78c2.64-10.54,5.86-20.93,9.78-31.24
		c0.76,17.68,1.32,35.38,2.32,53.05c1.06,18.57,2.44,37.13,3.95,55.67c0.2,2.43,1.52,5.08,3.07,7.04c3.57,4.55,7.6,8.75,12.3,14.07
		c19.69-24.27,46.29-38.22,73.52-51.6c-1.02,0.89-2.04,1.77-3.05,2.67c-14.5,12.74-28.62,25.97-43.64,38.07
		c-10.47,8.44-16.77,19.55-24.01,30.88c10.03,9.51,20.01,18.99,30.03,28.43c0.57,0.54,1.4,0.9,2.17,1.12
		c15.5,4.43,31.01,8.83,47.46,13.51c-1.55-6.91-2.9-13.12-4.34-19.3c-3.13-13.42-6.44-26.81-9.35-40.28
		c-0.5-2.32-0.04-5.34,1.09-7.44c5.34-9.93,11.07-19.64,17.47-29.17c-1.74,9.29-3.6,18.57-5.14,27.9c-0.38,2.32-0.26,5,0.53,7.19
		c6.55,18.12,12.9,36.33,20.2,54.15c3.57,8.7,9,16.64,13.65,24.89c4.41,7.82,8.75,15.68,13.49,23.3c1.1,1.77,3.54,3.42,5.61,3.79
		c14.03,2.52,28.1,2.55,42.24,0.35c3.74-0.58,5.76-1.93,7.72-5.03c18.47-29.4,32.49-60.79,44.09-93.49
		c3.77-10.63,2.24-20,0.34-30.01c-0.83-4.38-1.69-8.76-1.79-13.48c4.73,8.27,9.11,16.78,14.31,24.74
		c3.76,5.76,4.25,11.16,2.54,17.73c-4.42,17.04-8.15,34.25-12.14,51.4c-0.14,0.6-0.19,1.23-0.39,2.57
		c8.59-2.37,16.57-5.42,24.82-6.68c19.03-2.93,32.86-13.68,45.46-27.22c8.81-9.46,9.05-8.98,2.32-20.17
		c-4.25-7.08-9.53-13.04-15.79-18.42c-15.9-13.66-31.55-27.63-47.29-41.48c-0.24-0.21-0.37-0.54-1.04-1.56
		c27.35,14.23,53.93,28.13,73.76,52.68c5.23-5.93,9.93-11.02,14.29-16.38c1.02-1.26,1.13-3.44,1.25-5.22
		c1.45-21.54,2.92-43.07,4.18-64.62c0.85-14.52,1.38-29.06,2.87-43.75c1.01,3.42,2.04,6.83,3.03,10.26
		c1.83,6.38,3.16,12.95,5.53,19.12c6.98,18.11,5.18,37,5.45,55.7c0.02,1.42-0.7,2.88-1.21,4.27c-5.36,14.66-10.45,29.42-16.29,43.89
		c-2.24,5.54-1.75,9.77,2.36,14.22c0.82-1.26,1.67-2.44,2.4-3.7c1.83-3.16,3.61-6.36,5.42-9.54c15.98-28.05,15.7-28.08,18.43-60.28
		c1.99-23.51,4.83-46.96,7.31-70.43c0.16-1.47,0.5-2.92,1.01-5.76c2.89,16.4,5.08,31.32,3.8,46.81
		c-2.15,25.98-1.91,52.17-7.12,77.87c-0.39,1.92-0.94,3.88-1.85,5.6c-9.3,17.64-18.6,35.28-28.16,52.78
		c-1.1,2.01-3.56,3.96-5.77,4.57c-25.63,7.13-51.36,13.92-77,21.03c-3.21,0.89-6.43,2.69-8.98,4.84
		c-7.88,6.65-15.48,13.64-23.08,20.62c-1.12,1.03-2.24,2.61-2.39,4.04c-0.71,6.58-1.09,13.19-1.63,20.42
		c1.84-0.69,3.19-1.12,4.48-1.7c10.32-4.63,20.71-9.1,30.9-14c6.11-2.94,12.25-4.68,19.12-4.52c11.96,0.28,23.93,0.08,36.32,0.08
		c-0.33,0.98-0.69,2.35-1.25,3.62c-6.46,14.57-13.05,29.08-19.37,43.72c-1.23,2.84-2.78,4.07-5.81,4.31
		c-11.62,0.94-23.2,2.63-34.83,2.99c-11.88,0.37-21.43,6.71-31.92,10.67c-0.88,0.33-1.7,1.99-1.78,3.09
		c-1.11,15.08-3.19,30.21-2.78,45.26c0.4,14.54,3.13,29.05,5.31,43.51c3.14,20.85,6.75,41.62,9.98,62.46
		c0.22,1.44-0.71,3.46-1.76,4.64c-4.29,4.86-8.5,9.89-13.4,14.09c-3.87,3.32-3.74,7.21-3.32,11.25c0.49,4.69-1.29,7.5-5.07,10.26
		c-13.82,10.14-27.42,20.58-40.94,31.13c-3.67,2.86-6.57,2.86-10.2,0.05c-14.07-10.91-28.23-21.72-42.5-32.39
		c-2.54-1.9-4.03-3.81-3.42-6.97c1.37-7.1-1.37-12.46-6.84-16.84c-1.93-1.55-3.26-3.86-5.22-5.34c-5.99-4.53-6.61-9.68-5.27-17.16
		c4.5-24.99,7.03-50.35,11.64-75.32c4.25-23.02,0.85-45.72-0.45-68.54c-0.08-1.39-2-3.06-3.47-3.93
		c-15.41-9.12-32.68-10.47-49.98-11.65c-5.32-0.36-10.64-0.75-15.91-1.5c-1.5-0.21-3.53-1.4-4.11-2.68
		c-7.22-15.86-14.22-31.83-21.26-47.78C71.01,241.75,71.12,241.37,71.12,241.54z M192.43,300.5c-7.16,18.44-13.9,35.75-20.57,53.08
		c-0.37,0.96-0.55,2.36-0.12,3.22c5.03,10.07,10.2,20.08,15.65,30.72c8.79-12.34,17.2-24.07,25.46-35.9
		c0.58-0.83,0.52-2.55,0.09-3.57C206.31,332.48,199.56,316.98,192.43,300.5z M236.83,415.69c-0.35,0.08-0.69,0.16-1.04,0.24
		c-3.95,20.81-7.9,41.61-11.96,63.01c16.02,0.92,31.47,1.82,47.82,2.76C259.7,459.06,248.26,437.37,236.83,415.69z M271.68,483.48
		c-15.92-0.93-31.78-1.86-47.71-2.8c0,17.36,0,34.21,0,51.86c2.26-1.59,3.87-2.65,5.41-3.82c11.52-8.77,22.66-18.11,34.68-26.14
		c7-4.68,9.4-10.03,7.96-17.79C271.99,484.65,271.94,484.5,271.68,483.48z M216.56,352.02c6.65,19.78,12.89,38.35,19.38,57.65
		c13.48-11.2,26.3-21.84,39.78-33.03C255.77,368.34,236.73,360.42,216.56,352.02z M221.23,479.32
		c-11.5-14.15-22.48-27.68-33.87-41.69c-5.82,13.25-11.45,25.95-16.9,38.73c-0.37,0.86,0.53,2.3,0.91,3.44
		c0.8,2.39,1.98,4.71,2.39,7.15c0.41,2.48,0.09,5.07,0.09,8.28C190.08,489.78,205.33,484.66,221.23,479.32z M281.34,268.16
		c-0.34-0.15-0.67-0.29-1.01-0.44c-13.47,15.36-26.93,30.73-40.58,46.29c12.26,9,23.94,17.56,36.29,26.63
		C277.86,315.69,279.6,291.93,281.34,268.16z M234.6,412.69c-16.14,8.23-30.89,15.76-46.06,23.5c11.18,13.75,22.05,27.11,33.7,41.45
		C226.42,455.72,230.37,434.95,234.6,412.69z M284.68,429.29c-15.69-5.22-30.77-10.24-46.85-15.59
		c11.86,22.46,23.14,43.84,35.03,66.38C276.94,462.54,280.73,446.28,284.68,429.29z M221.76,481.04
		c-15.66,5.27-30.99,10.42-47.02,15.81c15.91,12.11,31.17,23.71,47.02,35.78C221.76,515.01,221.76,498.31,221.76,481.04z
		 M273.33,373.68c0.28-0.23,0.56-0.46,0.84-0.69c-12.12-18.68-24.24-37.37-36.68-56.55c-6.81,11.76-13.18,22.79-19.74,34.12
		C236.55,358.38,254.94,366.03,273.33,373.68z M234.37,410.66c-6.75-20.05-13.06-38.79-19.66-58.39
		c-9.2,12.94-17.81,25.06-26.87,37.81C203.41,396.97,218.33,403.57,234.37,410.66z M277.98,377.14
		c-14.11,11.73-27.41,22.78-41.26,34.29c16.2,5.38,31.55,10.48,47.89,15.91C282.37,410.38,280.25,394.35,277.98,377.14z
		 M170.25,360.24c-2.14,16.4-4.31,32.8-6.36,49.21c-0.14,1.16,0.2,2.82,0.97,3.59c6.66,6.63,13.47,13.12,21.28,20.66
		c0-11.52-0.83-21.66,0.19-31.62C188.04,385.3,176.84,373.84,170.25,360.24z M168.65,475.8c5.49-12.56,10.97-24.98,16.31-37.47
		c0.41-0.95,0.31-2.77-0.33-3.41c-6.88-6.83-13.92-13.49-20.87-20.16c-2.91,15.5-5.75,30.46-8.47,45.44c-0.2,1.13,0.1,2.8,0.85,3.56
		C160.05,467.78,164.19,471.57,168.65,475.8z M193.44,296.75c12.78-4.84,24.6-9.31,36.82-13.93c-9.56-12.41-18.73-24.39-28.02-36.26
		c-0.84-1.07-2.46-1.52-4.54-2.74C196.25,261.83,194.89,278.75,193.44,296.75z M188.27,392.31c0,14.2,0,27.67,0,41.96
		c14.7-7.51,28.86-14.74,44.09-22.52C217.03,405,202.88,398.76,188.27,392.31z M274.28,201.32c-7.85,13.72-15.71,27.43-23.79,41.56
		c11.12,4.13,21.57,8.01,32.24,11.97C285.74,235.7,277.67,219.01,274.28,201.32z M171.72,201.39c-0.42,0.03-0.85,0.07-1.27,0.1
		c-1.97,17.53-9.92,34.16-7.78,53.09c11.38-4.06,21.94-7.83,32.84-11.72C187.38,228.68,179.55,215.04,171.72,201.39z M194.02,299.69
		c7.53,17.31,14.48,33.31,21.89,50.35c7.2-12.42,13.79-23.8,20.62-35.6C222.39,309.53,208.84,304.82,194.02,299.69z M350.84,290.62
		c-3.17-11.72-6.23-23-9.58-35.34c-12.68,13.42-24.72,26.15-37.57,39.75C320.18,293.49,335.23,292.08,350.84,290.62z M249.64,244.49
		c-5.35,12.26-10.52,24.09-16.19,37.09c16.37-6.45,31.45-12.34,46.45-18.44c1.06-0.43,1.92-2.44,2.02-3.78
		c0.08-1.1-0.83-2.99-1.76-3.35C270.16,252.08,260.08,248.39,249.64,244.49z M163.09,256.37c9.56,13.12,18.66,25.6,28.62,39.28
		c1.44-17.82,2.76-34.03,4.13-50.96C184.62,248.69,174.22,252.4,163.09,256.37z M203.87,245.53c9.34,12.14,18.3,23.79,27.63,35.92
		c5.45-12.5,10.57-24.26,15.65-35.92C232.59,245.53,218.68,245.53,203.87,245.53z M103.45,258.81c-2.87,11.11-5.51,21.3-8.24,31.88
		c15.63,1.44,30.47,2.82,46.73,4.32C128.56,282.43,116.37,270.96,103.45,258.81z M278.66,266.84c-0.15-0.31-0.29-0.62-0.44-0.92
		c-14.49,5.69-28.99,11.36-43.43,17.15c-0.78,0.31-1.75,1.8-1.6,2.54c1.74,8.56,3.68,17.08,5.76,26.49
		C252.62,296.51,265.64,281.68,278.66,266.84z M289.22,273.18c3.89,7.95,7.41,15.14,11.11,22.7c12.58-13.31,24.73-26.15,36.87-39
		c-0.15-0.23-0.31-0.45-0.46-0.68C321.07,261.8,305.4,267.4,289.22,273.18z M342.77,254.05c3.14,11.48,6.14,22.45,9.48,34.66
		c6.87-15.51,13.21-29.84,20-45.17C361.77,247.28,352.58,250.56,342.77,254.05z M237.23,312.76c-2.21-10.02-4.18-18.99-6.24-28.34
		c-12,4.6-23.28,8.93-35.84,13.75C209.88,303.28,223.05,307.84,237.23,312.76z M167.47,305.18c8.13-2.6,15.5-4.96,23.42-7.5
		c-8.88-12.18-17.44-23.95-26.01-35.71c-0.25,0.16-0.51,0.31-0.76,0.47C165.22,276.44,166.32,290.43,167.47,305.18z M241.86,317.87
		c-0.26,0.25-0.51,0.5-0.77,0.75c11.7,18.03,23.39,36.06,35.09,54.1c0.78-2.51,0.43-4.57,0.32-6.66
		c-0.31-5.92-0.93-11.87-0.63-17.77c0.2-3.95-0.76-6.49-4.11-8.58c-3.51-2.19-6.7-4.88-10.05-7.33
		C255.1,327.53,248.48,322.7,241.86,317.87z M190.84,299.61c-7.46,2.38-13.58,4.49-19.78,6.25c-2.58,0.73-3.42,1.96-3.22,4.56
		c0.7,8.76,1.23,17.52,1.83,26.29c0.28,4.04,0.56,8.08,0.84,12.11c0.37,0.04,0.75,0.07,1.12,0.11
		C177.89,332.85,184.16,316.77,190.84,299.61z M93.79,288.76c3.04-11.65,5.71-21.86,8.43-32.31c-9.24-4.08-18.04-7.97-26.85-11.86
		c-0.24,0.34-0.49,0.68-0.73,1.02C80.82,259.54,87,273.47,93.79,288.76z M284.76,237.31c9.9-8.86,19.05-17.04,29.06-26
		c-12.45-1.03-23.53-1.95-35.21-2.91C280.7,218.2,282.61,227.2,284.76,237.31z M128.66,210.27c-6.98-7.36-12.98-13.73-19.06-20.02
		c-0.59-0.61-1.78-1.06-2.62-0.97c-12.57,1.27-25.14,2.65-37.7,4c-0.02,0.3-0.03,0.6-0.05,0.9
		C88.57,199.42,107.92,204.66,128.66,210.27z M153.66,279.53c-15.64-7-30.83-13.79-46.02-20.59c-0.17,0.27-0.33,0.54-0.5,0.81
		c12.73,11.98,25.46,23.95,38.55,36.26C148.44,290.32,150.95,285.14,153.66,279.53z M167.4,208.43c-11.63,1.42-22.18,2.7-33.82,4.12
		c9.65,8.62,18.35,16.39,27.69,24.73C163.39,227.29,165.3,218.3,167.4,208.43z M376.76,194.13c0.06-0.29,0.12-0.58,0.18-0.87
		c-12.37-1.33-24.74-2.7-37.12-3.95c-1.37-0.14-3.43-0.09-4.11,0.73c-4.88,5.92-9.48,12.06-15,19.2
		C340.36,203.95,358.56,199.04,376.76,194.13z M343.25,186.63c0.03,0.43,0.07,0.85,0.1,1.28c9.74,1.05,19.52,1.79,29.2,3.22
		c8.89,1.32,17.29,0.55,27.29-4.09c-2.93-2.18-5.44-3.44-7.08-5.42c-2.3-2.78-4.5-3.62-8.12-2.75c-6.28,1.51-12.73,2.31-19.1,3.48
		C358.11,183.73,350.68,185.2,343.25,186.63z M387.77,176.54c-3.22-7-6.13-13.33-9.24-20.1c-9.45,9-18.41,17.52-28.31,26.95
		C363.39,180.98,375.22,178.83,387.77,176.54z M47.16,188.33c5.98,1.42,10.99,3.81,15.85,3.55c13.44-0.73,26.82-2.57,41.71-4.13
		c-2.51-0.88-3.55-1.41-4.64-1.61c-13.08-2.33-26.16-4.64-39.25-6.84c-1.17-0.2-2.76,0.09-3.68,0.78
		C54,182.43,51.07,185.06,47.16,188.33z M93.86,183.08c0.22-0.27,0.45-0.54,0.67-0.82c-8.88-8.45-17.77-16.89-27.01-25.68
		c-2.44,5.97-4.61,11.15-6.66,16.37c-1.01,2.57-0.54,4.56,2.64,5.09C73.62,179.71,83.74,181.4,93.86,183.08z M393.88,170.59
		c0.26,0.23,0.52,0.46,0.78,0.69c5.73-4.62,11.29-9.48,17.26-13.77c5.28-3.79,8.56-8.08,8.78-14.98c0.23-7.14,1.63-14.25,2.52-21.37
		c-0.37-0.11-0.74-0.22-1.1-0.33C412.71,137.42,403.3,154,393.88,170.59z M149.97,275.89c0.13-0.28,0.26-0.56,0.4-0.84
		c-11.26-10.25-22.52-20.5-32.93-29.98c-4.2,3.6-8.14,6.98-12.47,10.69C120.43,262.68,135.2,269.29,149.97,275.89z M23.84,120.73
		c-0.37,0.12-0.75,0.25-1.12,0.37c0.71,5.35,1.95,10.69,2,16.04c0.09,8.62,3.34,14.96,10.42,20.05c5.78,4.15,10.79,9.38,16.14,14.12
		c0.28-0.25,0.55-0.5,0.83-0.75C42.69,153.95,33.26,137.34,23.84,120.73z M150.18,196.71c3.23-3.67,5.39-6.82,8.21-9.2
		c4.43-3.73,4.54-7.56,2.22-12.51c-2.38-5.08-3.97-10.52-5.95-15.79c-1.84-4.89-3.73-9.76-5.59-14.64
		c-0.28,0.08-0.56,0.15-0.84,0.23C148.86,161.71,149.5,178.61,150.18,196.71z M297.78,144.86c-0.34-0.03-0.68-0.06-1.02-0.09
		c-4.44,11.94-8.91,23.86-13.25,35.83c-0.31,0.86-0.05,2.38,0.55,3.04c3.53,3.85,7.25,7.54,11.8,12.21
		C296.54,177.89,297.16,161.38,297.78,144.86z M298.87,297.01c-5.12-10.4-9.89-20.08-14.66-29.76c-0.34,0.16-0.68,0.32-1.02,0.47
		c-0.91,12.15-1.82,24.29-2.78,37.18C286.96,302.09,292.68,299.65,298.87,297.01z M63.01,135.71c-9.48-12-18.57-23.53-27.67-35.05
		c-0.23,0.12-0.45,0.24-0.68,0.35c5.17,14.07,10.34,28.14,15.64,42.57C54.76,140.81,58.83,138.3,63.01,135.71z M162.77,267.44
		c-0.35-0.08-0.71-0.17-1.06-0.25c-4.77,9.87-9.53,19.74-14.46,29.95c6.38,2.68,12.06,5.07,18.39,7.73
		C164.63,291.78,163.7,279.61,162.77,267.44z M411.37,100.86c-0.23-0.08-0.46-0.16-0.69-0.24c-9.11,11.55-18.23,23.09-27.66,35.04
		c4.07,2.52,8.21,5.09,12.72,7.89C401.07,128.98,406.22,114.92,411.37,100.86z M32.14,60.47c-0.51,0.12-1.02,0.25-1.53,0.37
		c0,8.94-0.01,17.88,0.02,26.83c0,0.97,0,2.15,0.51,2.88c5.26,7.53,10.63,14.98,15.97,22.46c0.43-0.21,0.86-0.41,1.28-0.62
		C45.1,94.43,37.15,77.9,32.14,60.47z M161.41,263.7c-13.26-6.09-25.98-11.93-38.71-17.76c-0.2,0.3-0.39,0.6-0.59,0.91
		c10.86,9.89,21.73,19.77,32.9,29.94C157.33,272.04,159.21,268.2,161.41,263.7z M415.46,60.73c-0.56-0.07-1.11-0.14-1.67-0.21
		c-4.85,17.45-12.98,33.9-15.51,52.15c5.9-7.07,11.19-14.41,16.36-21.82c0.61-0.87,0.77-2.19,0.78-3.31
		C415.49,78.6,415.46,69.67,415.46,60.73z M339.84,253.19c-2.97-2.74-5.36-4.76-7.53-6.99c-2.21-2.26-3.97-2.47-6.67-0.35
		c-8.47,6.64-17.21,12.94-25.83,19.39c-0.87,0.65-1.61,1.49-2.41,2.24c0.15,0.23,0.31,0.46,0.46,0.69
		C311.54,263.3,325.2,258.42,339.84,253.19z M379.96,155.29c3.11,6.61,6.01,12.77,9.09,19.31c0.78-1.06,1.11-1.44,1.35-1.86
		c2.18-3.7,4.37-7.4,6.5-11.13c4.35-7.61,4.33-7.62-1.47-15.15C390.46,149.3,385.46,152.15,379.96,155.29z M285.27,434.72
		c-3.6,15.47-6.85,29.46-9.8,42.14c4.41-3.97,9.64-8.52,14.61-13.34c0.77-0.74,0.7-2.77,0.43-4.09
		C288.96,451.63,287.24,443.88,285.27,434.72z M147.15,185.78c0.3-0.04,0.6-0.07,0.9-0.11c-0.62-15.31-1.19-30.63-1.95-45.93
		c-0.05-1.06-1.37-2.66-2.4-2.95c-2.42-0.69-5.02-0.73-8.25-1.12C139.51,153.02,143.33,169.4,147.15,185.78z M147.24,199.47
		c-11.83-3.34-22.78-6.44-33.73-9.53c-0.19,0.35-0.38,0.7-0.57,1.05c6.2,6.5,12.39,13,18.7,19.62
		C136.94,206.83,141.74,203.4,147.24,199.47z M310.42,136.13c-10.48,0.05-10.48,0.05-10.89,9.49c-0.03,0.66-0.15,1.32-0.15,1.99
		c-0.01,12.69-0.01,25.37-0.01,36.04C302.71,169.28,306.54,152.79,310.42,136.13z M318.07,209.64c5.06-6.57,9.76-12.69,14.47-18.8
		c-0.24-0.25-0.48-0.5-0.73-0.76c-10.53,3-21.05,6-32.66,9.32C305.99,203.1,311.76,206.23,318.07,209.64z M28.99,153.99
		c-0.23,0.19-0.46,0.37-0.7,0.56c5.69,10.73,11.39,21.47,17.35,32.71c3.62-3.07,6.96-5.9,10.59-8.98
		C46.88,169.95,37.94,161.97,28.99,153.99z M114.76,242.83c-13.53,0-25.77,0-38.66,0c8.45,3.79,16.29,7.41,24.23,10.78
		c1.22,0.52,3.43,0.49,4.29-0.28C107.87,250.4,110.76,247.05,114.76,242.83z M415.93,157.88c-0.27-0.26-0.54-0.52-0.81-0.78
		c-8.05,6.54-16.1,13.08-24.28,19.72c3.44,3.5,6.5,6.61,9.76,9.93C405.85,176.87,410.89,167.38,415.93,157.88z M294.92,198.85
		c-4.61-4.64-8.85-8.9-13.41-13.5c-1.08,6.72-7.96,12.43-2.85,20.53C284.08,203.53,289.63,201.13,294.92,198.85z M167.36,205.91
		c4.86-8.44-1.86-14.35-3.43-22.04c-4.61,5.28-8.7,9.96-13.05,14.93C156.62,201.27,161.93,203.56,167.36,205.91z M401.17,92.5
		c3.89-11.43,8.02-23.57,12.15-35.7c-3.56,1.17-6.25,2.78-8.65,4.76c-1.41,1.17-3.29,2.87-3.35,4.39
		C401.01,74.96,401.17,83.99,401.17,92.5z M421.96,144.96c7.73-9.53,12.94-26.51,11.22-37.19c-2.7,2.89-6.41,5.03-6.99,7.81
		C424.21,125.05,423.34,134.74,421.96,144.96z M23.99,145.04c-1.11-8.79-2.54-16.94-3.05-25.14c-0.38-6.09-4-8.79-8.92-11.43
		C13.04,121.71,15.07,134.13,23.99,145.04z M368.21,243.02c-11.73,0-23.63,0-36.83,0c3.56,3.17,5.82,5.38,8.31,7.32
		c1.06,0.82,2.81,1.8,3.82,1.46C351.92,248.99,360.23,245.9,368.21,243.02z M318.6,248.94c-0.19-0.25-0.38-0.49-0.58-0.74
		c-11.08,5.03-22.16,10.06-33.47,15.19c1.42,2.94,2.56,5.31,3.9,8.1C298.69,263.83,308.65,256.39,318.6,248.94z M45,93.01
		c0.37-0.01,0.74-0.02,1.11-0.03c-0.32-5.45-1.46-11-0.77-16.32c1.31-10.04-5.96-13.92-12.32-18.78C37.02,69.59,41.01,81.3,45,93.01
		z M431.24,64.68c-1.39,13.14-2.77,26.16-4.14,39.17C433.08,91.32,440.33,78.91,431.24,64.68z M43.49,16.05
		c-0.62-0.04-1.25-0.08-1.87-0.12c-2.97,10.59-5.95,21.18-8.92,31.77c3.77-2.07,6.68-4.49,9.3-7.19c0.87-0.89,1.4-2.48,1.43-3.76
		C43.56,29.86,43.49,22.96,43.49,16.05z M44.81,65.2c-0.41-8.52-0.75-15.51-1.15-23.65c-4.46,4.15-8.05,7.48-11.98,11.14
		C35.87,56.67,39.78,60.4,44.81,65.2z M59.31,171.96c2.52-6.33,4.57-11.47,6.65-16.7c-4.82-2.73-9.12-5.16-14.52-8.21
		C54.23,155.85,56.56,163.23,59.31,171.96z M413.33,47.42c-2.97-10.38-5.94-20.77-8.9-31.15c-0.52,0.08-1.04,0.16-1.56,0.25
		c0,4.08,0.73,8.33-0.15,12.22C400.57,38.22,407.05,42.6,413.33,47.42z M413.39,53.16c-3.75-4.17-7.18-7.98-11.33-12.59
		c0,7.25,0,13.52,0,20.46C406.31,58.08,410.07,55.47,413.39,53.16z M15.32,70.35c-0.52-0.06-1.04-0.12-1.56-0.18
		c-1.21,4.36-4.06,9.05-3.27,13.02c1.42,7.17,5.02,13.92,7.71,20.84c0.23-0.08,0.46-0.15,0.69-0.23
		C17.69,92.66,16.5,81.5,15.32,70.35z M311.41,209.36c-8.31-9.24-20.03-10.13-28.23-2.4C292.53,207.76,301.8,208.54,311.41,209.36z
		 M67.88,152.11c4.75-7.53,8.77-13.91,12.79-20.29c-4.8,0.73-8.86,2.1-12.82,3.73c-0.81,0.33-1.76,1.7-1.69,2.51
		C66.51,142.31,67.16,146.54,67.88,152.11z M163.01,207.19c0.1-0.35,0.19-0.71,0.29-1.06c-4.08-1.74-8.14-3.53-12.26-5.16
		c-0.78-0.31-2.03-0.3-2.69,0.13c-3.95,2.64-7.79,5.44-11.67,8.18c0.13,0.33,0.26,0.66,0.39,0.99
		C145.71,209.24,154.36,208.21,163.01,207.19z M144.82,135.07c1.44-7.72,2.83-15.23,4.23-22.75c-0.31-0.11-0.62-0.22-0.92-0.33
		c-4.05,7.13-8.09,14.25-12.35,21.76C139.16,134.24,141.9,134.64,144.82,135.07z M310.32,133.77c-4.4-7.7-8.46-14.81-12.52-21.91
		c-0.29,0.11-0.58,0.22-0.86,0.34c1.42,7.57,2.85,15.14,4.29,22.82C304.08,134.62,306.7,134.26,310.32,133.77z M123.92,94.01
		c-0.26-0.33-0.52-0.65-0.78-0.98c-8.61,4.89-17.22,9.78-25.84,14.66c0.07,0.56,0.14,1.11,0.21,1.67c2.86,0.12,6.62,1.47,8.42,0.15
		C112.3,104.84,117.98,99.26,123.92,94.01z M9.15,75.78c9.6-12.02,1.09-22.33-1.82-33.02C7.93,53.58,8.52,64.4,9.15,75.78z
		 M359.85,127.2c0.24-0.16,0.48-0.31,0.73-0.47c-1.9-3.65-3.79-7.3-5.69-10.95c-3.82-7.31-5.32-7.86-13.41-4.74
		C347.65,116.47,353.75,121.84,359.85,127.2z M357.88,115.19c4.01,8.56,5.12,20.33,19.31,18
		C370.66,127.1,364.27,121.15,357.88,115.19z M57.1,175.44c0.4-0.17,0.81-0.35,1.21-0.52c-2.79-8.85-5.58-17.69-8.37-26.54
		c-0.5-0.02-1-0.04-1.51-0.06c-0.78,2.67-2.95,5.96-2.08,7.89C49.36,162.87,53.43,169.06,57.1,175.44z M436.97,73.39
		c0.63-11.23,1.22-21.92,1.84-33.06C431.43,51.14,431.37,61.85,436.97,73.39z M66.13,153.27c-0.72-5.77-1.33-10.6-2.01-16.09
		c-4.41,2.76-8.13,5.08-12.45,7.78C56.63,147.81,61.01,150.33,66.13,153.27z M366.75,134c3.88,6.15,7.24,11.47,10.6,16.79
		c0.37-0.1,0.73-0.21,1.1-0.31c0.52-4.67,1.03-9.35,1.57-14.16C375.57,135.54,371.68,134.86,366.75,134z M381.85,137.19
		c-0.66,5.52-1.24,10.34-1.93,16.05c5.18-3.01,9.56-5.56,14.42-8.39C390.01,142.19,386.23,139.88,381.85,137.19z M348.62,107.59
		c-9.77-5.54-18.37-10.41-26.96-15.28c3.74,4.57,8.38,8.04,12.2,12.25C337.83,108.94,342.26,108.58,348.62,107.59z M102.37,112.94
		c-0.06-0.49-0.11-0.98-0.17-1.47c-2.92,0-7.38-1.19-8.46,0.22c-3.42,4.45-5.57,9.87-8.22,14.91c0.23,0.18,0.47,0.37,0.7,0.55
		C91.6,122.41,96.98,117.68,102.37,112.94z M9.78,17.41C4.6,28.98,8.46,39.16,13.1,49.27C12.01,38.79,10.92,28.31,9.78,17.41z
		 M89.08,114.3c-6.77,6.35-12.6,11.8-18.69,17.51C81.28,131.28,85.98,124.58,89.08,114.3z M433.14,46.47
		c5.71-9.66,7.36-18.86,3.16-29.27C435.23,27.11,434.23,36.41,433.14,46.47z M10.54,89.45c-1.43,12.93-0.03,16.47,7.63,19.81
		C15.67,102.76,13.29,96.58,10.54,89.45z M435.1,90.46c-2.38,6.16-4.75,12.32-7.36,19.1C437.72,105.61,435.3,97.61,435.1,90.46z"/>
	<path class="st0" d="M192.43,300.5c7.13,16.48,13.88,31.99,20.51,47.54c0.43,1.02,0.49,2.74-0.09,3.57
		c-8.27,11.83-16.68,23.56-25.46,35.9c-5.45-10.64-10.61-20.65-15.65-30.72c-0.43-0.85-0.25-2.25,0.12-3.22
		C178.53,336.24,185.27,318.94,192.43,300.5z"/>
	<path class="st0" d="M236.83,415.69c11.44,21.68,22.88,43.37,34.82,66.01c-16.35-0.94-31.8-1.83-47.82-2.76
		c4.06-21.4,8.01-42.2,11.96-63.01C236.14,415.85,236.48,415.77,236.83,415.69z"/>
	<path class="st0" d="M271.68,483.48c0.26,1.01,0.31,1.17,0.34,1.33c1.44,7.76-0.96,13.11-7.96,17.79
		c-12.02,8.03-23.16,17.37-34.68,26.14c-1.53,1.17-3.15,2.23-5.41,3.82c0-17.66,0-34.51,0-51.86
		C239.9,481.62,255.76,482.55,271.68,483.48z"/>
	<path class="st0" d="M216.56,352.02c20.18,8.4,39.22,16.32,59.16,24.61c-13.48,11.19-26.29,21.84-39.78,33.03
		C229.45,390.38,223.21,371.8,216.56,352.02z"/>
	<path class="st0" d="M221.23,479.32c-15.9,5.34-31.15,10.46-47.38,15.91c0-3.2,0.32-5.8-0.09-8.28c-0.41-2.45-1.59-4.77-2.39-7.15
		c-0.38-1.14-1.28-2.58-0.91-3.44c5.46-12.78,11.08-25.48,16.9-38.73C198.74,451.65,209.73,465.17,221.23,479.32z"/>
	<path class="st0" d="M281.34,268.16c-1.74,23.77-3.47,47.53-5.29,72.48c-12.36-9.07-24.03-17.63-36.29-26.63
		c13.64-15.56,27.11-30.93,40.58-46.29C280.66,267.87,281,268.02,281.34,268.16z"/>
	<path class="st0" d="M234.6,412.69c-4.23,22.25-8.18,43.03-12.35,64.94c-11.66-14.33-22.53-27.7-33.7-41.45
		C203.71,428.45,218.46,420.93,234.6,412.69z"/>
	<path class="st0" d="M284.68,429.29c-3.95,16.99-7.74,33.25-11.82,50.78c-11.9-22.54-23.18-43.91-35.03-66.38
		C253.91,419.05,269,424.07,284.68,429.29z"/>
	<path class="st0" d="M221.76,481.04c0,17.27,0,33.97,0,51.59c-15.85-12.06-31.11-23.67-47.02-35.78
		C190.77,491.46,206.1,486.3,221.76,481.04z"/>
	<path class="st0" d="M273.33,373.68c-18.39-7.65-36.77-15.3-55.58-23.13c6.56-11.33,12.94-22.36,19.74-34.12
		c12.44,19.19,24.56,37.87,36.68,56.55C273.89,373.22,273.61,373.45,273.33,373.68z"/>
	<path class="st0" d="M234.37,410.66c-16.04-7.09-30.96-13.69-46.53-20.58c9.06-12.75,17.67-24.87,26.87-37.81
		C221.31,371.87,227.62,390.62,234.37,410.66z"/>
	<path class="st0" d="M277.98,377.14c2.27,17.21,4.39,33.24,6.63,50.21c-16.34-5.43-31.69-10.53-47.89-15.91
		C250.57,399.92,263.87,388.87,277.98,377.14z"/>
	<path class="st0" d="M170.25,360.24c6.58,13.6,17.79,25.06,16.08,41.84c-1.01,9.96-0.19,20.1-0.19,31.62
		c-7.82-7.54-14.62-14.03-21.28-20.66c-0.77-0.77-1.12-2.43-0.97-3.59C165.95,393.04,168.11,376.64,170.25,360.24z"/>
	<path class="st0" d="M168.65,475.8c-4.46-4.24-8.59-8.03-12.51-12.03c-0.74-0.76-1.05-2.44-0.85-3.56
		c2.71-14.98,5.56-29.94,8.47-45.44c6.95,6.66,13.99,13.33,20.87,20.16c0.64,0.63,0.73,2.46,0.33,3.41
		C179.61,450.82,174.14,463.25,168.65,475.8z"/>
	<path class="st0" d="M193.44,296.75c1.45-18,2.81-34.92,4.26-52.94c2.07,1.22,3.7,1.67,4.54,2.74
		c9.29,11.88,18.46,23.85,28.02,36.26C218.03,287.45,206.21,291.92,193.44,296.75z"/>
	<path class="st0" d="M188.27,392.31c14.61,6.44,28.76,12.68,44.09,19.44c-15.23,7.78-29.4,15.01-44.09,22.52
		C188.27,419.99,188.27,406.52,188.27,392.31z"/>
	<path class="st0" d="M274.28,201.32c3.39,17.69,11.46,34.38,8.45,53.53c-10.67-3.96-21.12-7.84-32.24-11.97
		C258.58,228.75,266.43,215.04,274.28,201.32z"/>
	<path class="st0" d="M171.72,201.39c7.83,13.65,15.66,27.29,23.8,41.47c-10.91,3.89-21.46,7.66-32.84,11.72
		c-2.14-18.92,5.81-35.55,7.78-53.09C170.88,201.46,171.3,201.42,171.72,201.39z"/>
	<path class="st0" d="M194.02,299.69c14.81,5.14,28.37,9.84,42.51,14.75c-6.84,11.8-13.43,23.18-20.62,35.6
		C208.51,333,201.55,317,194.02,299.69z"/>
	<path class="st0" d="M350.84,290.62c-15.62,1.46-30.66,2.87-47.15,4.41c12.85-13.6,24.89-26.33,37.57-39.75
		C344.61,267.62,347.67,278.91,350.84,290.62z"/>
	<path class="st0" d="M249.64,244.49c10.44,3.9,20.52,7.59,30.52,11.51c0.93,0.37,1.84,2.25,1.76,3.35
		c-0.1,1.34-0.96,3.35-2.02,3.78c-15,6.1-30.09,11.99-46.45,18.44C239.12,268.58,244.28,256.75,249.64,244.49z"/>
	<path class="st0" d="M163.09,256.37c11.13-3.97,21.53-7.68,32.75-11.68c-1.37,16.93-2.69,33.14-4.13,50.96
		C181.75,281.97,172.65,269.49,163.09,256.37z"/>
	<path class="st0" d="M203.87,245.53c14.81,0,28.72,0,43.28,0c-5.08,11.65-10.2,23.41-15.65,35.92
		C222.18,269.32,213.22,257.68,203.87,245.53z"/>
	<path class="st0" d="M103.45,258.81c12.92,12.15,25.12,23.62,38.48,36.2c-16.26-1.5-31.1-2.87-46.73-4.32
		C97.94,280.11,100.57,269.92,103.45,258.81z"/>
	<path class="st0" d="M278.66,266.84c-13.02,14.84-26.04,29.67-39.72,45.25c-2.08-9.41-4.02-17.93-5.76-26.49
		c-0.15-0.73,0.82-2.22,1.6-2.54c14.45-5.79,28.95-11.46,43.43-17.15C278.37,266.22,278.51,266.53,278.66,266.84z"/>
	<path class="st0" d="M289.22,273.18c16.18-5.78,31.85-11.38,47.52-16.98c0.15,0.23,0.31,0.45,0.46,0.68
		c-12.14,12.84-24.28,25.69-36.87,39C296.63,288.32,293.11,281.13,289.22,273.18z"/>
	<path class="st0" d="M342.77,254.05c9.81-3.5,19.01-6.78,29.48-10.51c-6.79,15.33-13.13,29.66-20,45.17
		C348.91,276.5,345.91,265.53,342.77,254.05z"/>
	<path class="st0" d="M237.23,312.76c-14.18-4.92-27.35-9.48-42.08-14.59c12.56-4.82,23.84-9.14,35.84-13.75
		C233.05,293.78,235.02,302.74,237.23,312.76z"/>
	<path class="st0" d="M167.47,305.18c-1.16-14.75-2.25-28.74-3.35-42.74c0.25-0.16,0.51-0.31,0.76-0.47
		c8.57,11.76,17.13,23.52,26.01,35.71C182.97,300.22,175.61,302.58,167.47,305.18z"/>
	<path class="st0" d="M241.86,317.87c6.62,4.84,13.24,9.67,19.85,14.51c3.35,2.45,6.54,5.14,10.05,7.33
		c3.35,2.09,4.31,4.63,4.11,8.58c-0.3,5.9,0.32,11.85,0.63,17.77c0.11,2.08,0.46,4.15-0.32,6.66c-11.7-18.03-23.39-36.06-35.09-54.1
		C241.35,318.36,241.6,318.12,241.86,317.87z"/>
	<path class="st0" d="M190.84,299.61c-6.68,17.16-12.95,33.24-19.21,49.32c-0.37-0.04-0.75-0.07-1.12-0.11
		c-0.28-4.04-0.57-8.08-0.84-12.11c-0.6-8.76-1.13-17.53-1.83-26.29c-0.21-2.59,0.63-3.82,3.22-4.56
		C177.26,304.1,183.37,302,190.84,299.61z"/>
	<path class="st0" d="M93.79,288.76c-6.79-15.29-12.97-29.22-19.15-43.15c0.24-0.34,0.49-0.68,0.73-1.02
		c8.8,3.89,17.61,7.78,26.85,11.86C99.49,266.9,96.83,277.11,93.79,288.76z"/>
	<path class="st0" d="M284.76,237.31c-2.15-10.11-4.07-19.11-6.15-28.91c11.68,0.97,22.76,1.88,35.21,2.91
		C303.81,220.27,294.66,228.46,284.76,237.31z"/>
	<path class="st0" d="M128.66,210.27c-20.74-5.61-40.09-10.85-59.43-16.09c0.02-0.3,0.03-0.6,0.05-0.9c12.57-1.35,25.13-2.73,37.7-4
		c0.85-0.09,2.03,0.36,2.62,0.97C115.68,196.54,121.68,202.91,128.66,210.27z"/>
	<path class="st0" d="M153.66,279.53c-2.71,5.61-5.22,10.78-7.97,16.48c-13.09-12.31-25.82-24.28-38.55-36.26
		c0.17-0.27,0.33-0.54,0.5-0.81C122.83,265.74,138.02,272.54,153.66,279.53z"/>
	<path class="st0" d="M167.4,208.43c-2.1,9.87-4.01,18.85-6.14,28.85c-9.33-8.34-18.04-16.11-27.69-24.73
		C145.22,211.13,155.77,209.85,167.4,208.43z"/>
	<path class="st0" d="M376.76,194.13c-18.2,4.91-36.4,9.81-56.05,15.11c5.52-7.15,10.12-13.29,15-19.2
		c0.68-0.83,2.74-0.87,4.11-0.73c12.38,1.25,24.75,2.62,37.12,3.95C376.87,193.55,376.82,193.84,376.76,194.13z"/>
	<path class="st0" d="M343.25,186.63c7.43-1.43,14.85-2.9,22.29-4.28c6.36-1.18,12.82-1.97,19.1-3.48c3.62-0.87,5.83-0.03,8.12,2.75
		c1.64,1.98,4.15,3.24,7.08,5.42c-10,4.64-18.4,5.41-27.29,4.09c-9.68-1.43-19.46-2.18-29.2-3.22
		C343.32,187.48,343.29,187.05,343.25,186.63z"/>
	<path class="st0" d="M387.77,176.54c-12.55,2.29-24.38,4.44-37.56,6.84c9.9-9.42,18.86-17.95,28.31-26.95
		C381.64,163.21,384.55,169.54,387.77,176.54z"/>
	<path class="st0" d="M47.16,188.33c3.91-3.28,6.84-5.91,9.98-8.25c0.92-0.69,2.51-0.98,3.68-0.78c13.1,2.2,26.18,4.51,39.25,6.84
		c1.09,0.19,2.13,0.72,4.64,1.61c-14.89,1.56-28.27,3.4-41.71,4.13C58.15,192.15,53.14,189.76,47.16,188.33z"/>
	<path class="st0" d="M93.86,183.08c-10.12-1.68-20.24-3.37-30.36-5.04c-3.18-0.52-3.65-2.52-2.64-5.09
		c2.05-5.23,4.22-10.4,6.66-16.37c9.24,8.79,18.13,17.23,27.01,25.68C94.3,182.53,94.08,182.81,93.86,183.08z"/>
	<path class="st0" d="M393.88,170.59c9.41-16.59,18.83-33.17,28.24-49.76c0.37,0.11,0.74,0.22,1.1,0.33
		c-0.89,7.12-2.29,14.23-2.52,21.37c-0.22,6.9-3.51,11.18-8.78,14.98c-5.97,4.29-11.52,9.16-17.26,13.77
		C394.41,171.05,394.14,170.82,393.88,170.59z"/>
	<path class="st0" d="M149.97,275.89c-14.77-6.6-29.54-13.21-45-20.12c4.33-3.71,8.27-7.09,12.47-10.69
		c10.42,9.48,21.67,19.73,32.93,29.98C150.23,275.33,150.1,275.61,149.97,275.89z"/>
	<path class="st0" d="M23.84,120.73c9.42,16.61,18.84,33.22,28.26,49.83c-0.28,0.25-0.55,0.5-0.83,0.75
		c-5.35-4.75-10.36-9.97-16.14-14.12c-7.08-5.08-10.33-11.42-10.42-20.05c-0.05-5.35-1.29-10.7-2-16.04
		C23.1,120.98,23.47,120.86,23.84,120.73z"/>
	<path class="st0" d="M150.18,196.71c-0.68-18.1-1.31-35.01-1.94-51.91c0.28-0.08,0.56-0.15,0.84-0.23
		c1.87,4.88,3.76,9.75,5.59,14.64c1.98,5.27,3.57,10.71,5.95,15.79c2.32,4.95,2.21,8.78-2.22,12.51
		C155.57,189.89,153.4,193.04,150.18,196.71z"/>
	<path class="st0" d="M297.78,144.86c-0.62,16.51-1.24,33.02-1.92,51c-4.56-4.67-8.27-8.36-11.8-12.21
		c-0.6-0.66-0.86-2.18-0.55-3.04c4.34-11.97,8.81-23.9,13.25-35.83C297.11,144.8,297.45,144.83,297.78,144.86z"/>
	<path class="st0" d="M298.87,297.01c-6.18,2.64-11.9,5.09-18.45,7.89c0.96-12.89,1.87-25.03,2.78-37.18
		c0.34-0.16,0.68-0.32,1.02-0.47C288.98,276.92,293.74,286.6,298.87,297.01z"/>
	<path class="st0" d="M63.01,135.71c-4.19,2.59-8.25,5.11-12.71,7.87c-5.3-14.43-10.47-28.5-15.64-42.57
		c0.23-0.12,0.45-0.24,0.68-0.35C44.44,112.18,53.54,123.7,63.01,135.71z"/>
	<path class="st0" d="M162.77,267.44c0.93,12.17,1.87,24.34,2.87,37.43c-6.33-2.66-12.01-5.05-18.39-7.73
		c4.93-10.21,9.7-20.08,14.46-29.95C162.06,267.27,162.41,267.35,162.77,267.44z"/>
	<path class="st0" d="M411.37,100.86c-5.15,14.06-10.3,28.12-15.63,42.69c-4.51-2.8-8.65-5.36-12.72-7.89
		c9.43-11.95,18.55-23.49,27.66-35.04C410.91,100.7,411.14,100.78,411.37,100.86z"/>
	<path class="st0" d="M32.14,60.47c5.01,17.43,12.96,33.95,16.25,51.91c-0.43,0.21-0.86,0.41-1.28,0.62
		c-5.34-7.48-10.71-14.93-15.97-22.46c-0.51-0.73-0.5-1.91-0.51-2.88c-0.04-8.94-0.02-17.88-0.02-26.83
		C31.12,60.72,31.63,60.6,32.14,60.47z"/>
	<path class="st0" d="M161.41,263.7c-2.2,4.5-4.08,8.34-6.39,13.08c-11.18-10.17-22.04-20.05-32.9-29.94c0.2-0.3,0.39-0.6,0.59-0.91
		C135.42,251.77,148.14,257.61,161.41,263.7z"/>
	<path class="st0" d="M415.46,60.73c0,8.94,0.03,17.87-0.03,26.81c-0.01,1.11-0.17,2.44-0.78,3.31
		c-5.17,7.42-10.47,14.75-16.36,21.82c2.53-18.25,10.66-34.7,15.51-52.15C414.35,60.59,414.91,60.66,415.46,60.73z"/>
	<path class="st0" d="M339.84,253.19c-14.65,5.23-28.31,10.11-41.97,14.98c-0.15-0.23-0.31-0.46-0.46-0.69
		c0.8-0.75,1.53-1.59,2.41-2.24c8.62-6.46,17.36-12.75,25.83-19.39c2.7-2.12,4.46-1.91,6.67,0.35
		C334.49,248.43,336.87,250.45,339.84,253.19z"/>
	<path class="st0" d="M379.96,155.29c5.5-3.14,10.5-5.99,15.47-8.83c5.8,7.53,5.82,7.54,1.47,15.15c-2.13,3.73-4.32,7.42-6.5,11.13
		c-0.25,0.42-0.58,0.8-1.35,1.86C385.97,168.06,383.08,161.9,379.96,155.29z"/>
	<path class="st0" d="M285.27,434.72c1.97,9.16,3.69,16.92,5.25,24.71c0.26,1.32,0.34,3.35-0.43,4.09
		c-4.97,4.81-10.2,9.36-14.61,13.34C278.42,464.18,281.67,450.19,285.27,434.72z"/>
	<path class="st0" d="M147.15,185.78c-3.82-16.38-7.65-32.75-11.7-50.11c3.23,0.39,5.83,0.44,8.25,1.12
		c1.03,0.29,2.35,1.89,2.4,2.95c0.76,15.3,1.33,30.62,1.95,45.93C147.75,185.7,147.45,185.74,147.15,185.78z"/>
	<path class="st0" d="M147.24,199.47c-5.5,3.93-10.3,7.36-15.6,11.14c-6.31-6.62-12.5-13.12-18.7-19.62
		c0.19-0.35,0.38-0.7,0.57-1.05C124.46,193.03,135.41,196.13,147.24,199.47z"/>
	<path class="st0" d="M310.42,136.13c-3.88,16.66-7.71,33.15-11.05,47.51c0-10.67,0-23.35,0.01-36.04c0-0.66,0.12-1.32,0.15-1.99
		C299.94,136.18,299.94,136.18,310.42,136.13z"/>
	<path class="st0" d="M318.07,209.64c-6.3-3.41-12.07-6.54-18.91-10.24c11.61-3.31,22.13-6.31,32.66-9.32
		c0.24,0.25,0.48,0.5,0.73,0.76C327.83,196.96,323.12,203.07,318.07,209.64z"/>
	<path class="st0" d="M28.99,153.99c8.95,7.98,17.89,15.96,27.24,24.29c-3.63,3.08-6.97,5.91-10.59,8.98
		c-5.96-11.24-11.66-21.98-17.35-32.71C28.53,154.37,28.76,154.18,28.99,153.99z"/>
	<path class="st0" d="M114.76,242.83c-4,4.22-6.89,7.56-10.14,10.5c-0.85,0.77-3.07,0.79-4.29,0.28
		c-7.94-3.37-15.78-6.98-24.23-10.78C88.98,242.83,101.22,242.83,114.76,242.83z"/>
	<path class="st0" d="M415.93,157.88c-5.04,9.49-10.09,18.99-15.33,28.87c-3.26-3.32-6.32-6.43-9.76-9.93
		c8.18-6.64,16.23-13.18,24.28-19.72C415.39,157.37,415.66,157.62,415.93,157.88z"/>
	<path class="st0" d="M294.92,198.85c-5.3,2.29-10.84,4.68-16.27,7.02c-5.1-8.1,1.78-13.81,2.85-20.53
		C286.08,189.94,290.31,194.2,294.92,198.85z"/>
	<path class="st0" d="M167.36,205.91c-5.44-2.34-10.74-4.63-16.48-7.11c4.35-4.98,8.44-9.65,13.05-14.93
		C165.5,191.56,172.22,197.47,167.36,205.91z"/>
	<path class="st0" d="M401.17,92.5c0-8.51-0.16-17.54,0.16-26.55c0.05-1.52,1.94-3.23,3.35-4.39c2.39-1.98,5.09-3.59,8.65-4.76
		C409.19,68.93,405.06,81.07,401.17,92.5z"/>
	<path class="st0" d="M421.96,144.96c1.38-10.23,2.25-19.91,4.23-29.37c0.58-2.79,4.29-4.92,6.99-7.81
		C434.9,118.45,429.69,135.43,421.96,144.96z"/>
	<path class="st0" d="M23.99,145.04c-8.92-10.91-10.95-23.33-11.97-36.57c4.91,2.64,8.54,5.34,8.92,11.43
		C21.45,128.11,22.88,136.25,23.99,145.04z"/>
	<path class="st0" d="M368.21,243.02c-7.98,2.88-16.29,5.97-24.7,8.78c-1.02,0.34-2.77-0.64-3.82-1.46
		c-2.48-1.93-4.75-4.14-8.31-7.32C344.58,243.02,356.48,243.02,368.21,243.02z"/>
	<path class="st0" d="M318.6,248.94c-9.95,7.44-19.9,14.89-30.15,22.55c-1.34-2.79-2.48-5.15-3.9-8.1
		c11.31-5.13,22.39-10.16,33.47-15.19C318.21,248.45,318.4,248.7,318.6,248.94z"/>
	<path class="st0" d="M45,93.01c-3.99-11.71-7.99-23.42-11.98-35.13c6.36,4.87,13.63,8.74,12.32,18.78
		c-0.7,5.32,0.45,10.87,0.77,16.32C45.74,92.99,45.37,93,45,93.01z"/>
	<path class="st0" d="M431.24,64.68c9.09,14.23,1.85,26.64-4.14,39.17C428.47,90.84,429.85,77.82,431.24,64.68z"/>
	<path class="st0" d="M43.49,16.05c0,6.9,0.07,13.81-0.06,20.71c-0.03,1.28-0.56,2.87-1.43,3.76c-2.63,2.69-5.53,5.12-9.3,7.19
		c2.97-10.59,5.95-21.18,8.92-31.77C42.24,15.97,42.86,16.01,43.49,16.05z"/>
	<path class="st0" d="M44.81,65.2c-5.03-4.8-8.95-8.54-13.12-12.52c3.93-3.65,7.51-6.99,11.98-11.14
		C44.06,49.69,44.4,56.68,44.81,65.2z"/>
	<path class="st0" d="M59.31,171.96c-2.76-8.73-5.09-16.11-7.87-24.91c5.39,3.05,9.69,5.48,14.52,8.21
		C63.88,160.49,61.83,165.63,59.31,171.96z"/>
	<path class="st0" d="M413.33,47.42c-6.28-4.82-12.76-9.2-10.61-18.69c0.88-3.88,0.15-8.13,0.15-12.22
		c0.52-0.08,1.04-0.16,1.56-0.25C407.4,26.65,410.36,37.03,413.33,47.42z"/>
	<path class="st0" d="M413.39,53.16c-3.33,2.31-7.08,4.92-11.33,7.87c0-6.94,0-13.21,0-20.46C406.21,45.18,409.64,49,413.39,53.16z"
		/>
	<path class="st0" d="M15.32,70.35c1.19,11.15,2.37,22.3,3.56,33.45c-0.23,0.08-0.46,0.15-0.69,0.23
		c-2.69-6.92-6.28-13.67-7.71-20.84c-0.79-3.97,2.06-8.66,3.27-13.02C14.27,70.23,14.79,70.29,15.32,70.35z"/>
	<path class="st0" d="M311.41,209.36c-9.61-0.82-18.88-1.6-28.23-2.4C291.38,199.22,303.1,200.12,311.41,209.36z"/>
	<path class="st0" d="M67.88,152.11c-0.72-5.57-1.37-9.79-1.72-14.04c-0.07-0.81,0.89-2.18,1.69-2.51
		c3.95-1.63,8.01-3.01,12.82-3.73C76.65,138.2,72.62,144.58,67.88,152.11z"/>
	<path class="st0" d="M163.01,207.19c-8.65,1.03-17.3,2.05-25.94,3.08c-0.13-0.33-0.26-0.66-0.39-0.99
		c3.88-2.75,7.72-5.55,11.67-8.18c0.65-0.43,1.91-0.44,2.69-0.13c4.12,1.63,8.18,3.42,12.26,5.16
		C163.2,206.48,163.1,206.83,163.01,207.19z"/>
	<path class="st0" d="M144.82,135.07c-2.92-0.43-5.65-0.83-9.04-1.32c4.26-7.51,8.31-14.63,12.35-21.76
		c0.31,0.11,0.62,0.22,0.92,0.33C147.65,119.84,146.25,127.36,144.82,135.07z"/>
	<path class="st0" d="M310.32,133.77c-3.62,0.5-6.24,0.86-9.09,1.25c-1.45-7.69-2.87-15.25-4.29-22.82
		c0.29-0.11,0.58-0.22,0.86-0.34C301.86,118.96,305.92,126.06,310.32,133.77z"/>
	<path class="st0" d="M123.92,94.01c-5.94,5.24-11.63,10.83-17.99,15.51c-1.79,1.32-5.56-0.03-8.42-0.15
		c-0.07-0.56-0.14-1.11-0.21-1.67c8.61-4.89,17.22-9.78,25.84-14.66C123.4,93.36,123.66,93.69,123.92,94.01z"/>
	<path class="st0" d="M9.15,75.78C8.52,64.4,7.93,53.58,7.33,42.77C10.24,53.46,18.75,63.76,9.15,75.78z"/>
	<path class="st0" d="M359.85,127.2c-6.1-5.36-12.2-10.73-18.37-16.16c8.09-3.12,9.59-2.58,13.41,4.74c1.9,3.65,3.79,7.3,5.69,10.95
		C360.34,126.88,360.09,127.04,359.85,127.2z"/>
	<path class="st0" d="M357.88,115.19c6.39,5.96,12.78,11.91,19.31,18C363,135.52,361.9,123.75,357.88,115.19z"/>
	<path class="st0" d="M57.1,175.44c-3.67-6.37-7.73-12.57-10.75-19.24c-0.87-1.93,1.3-5.22,2.08-7.89c0.5,0.02,1,0.04,1.51,0.06
		c2.79,8.85,5.58,17.69,8.37,26.54C57.91,175.09,57.5,175.26,57.1,175.44z"/>
	<path class="st0" d="M436.97,73.39c-5.6-11.53-5.54-22.25,1.84-33.06C438.19,51.47,437.59,62.16,436.97,73.39z"/>
	<path class="st0" d="M66.13,153.27c-5.12-2.94-9.5-5.46-14.46-8.31c4.32-2.7,8.04-5.03,12.45-7.78
		C64.8,142.67,65.41,147.5,66.13,153.27z"/>
	<path class="st0" d="M366.75,134c4.92,0.86,8.82,1.54,13.27,2.31c-0.53,4.82-1.05,9.49-1.57,14.16c-0.37,0.1-0.73,0.21-1.1,0.31
		C373.99,145.48,370.63,140.16,366.75,134z"/>
	<path class="st0" d="M381.85,137.19c4.38,2.69,8.16,5.01,12.49,7.66c-4.85,2.82-9.24,5.37-14.42,8.39
		C380.6,147.53,381.18,142.71,381.85,137.19z"/>
	<path class="st0" d="M348.62,107.59c-6.36,0.99-10.79,1.35-14.77-3.03c-3.82-4.21-8.46-7.68-12.2-12.25
		C330.26,97.18,338.85,102.05,348.62,107.59z"/>
	<path class="st0" d="M102.37,112.94c-5.38,4.74-10.77,9.48-16.15,14.22c-0.23-0.18-0.47-0.37-0.7-0.55
		c2.64-5.04,4.8-10.46,8.22-14.91c1.08-1.41,5.55-0.22,8.46-0.22C102.25,111.96,102.31,112.45,102.37,112.94z"/>
	<path class="st0" d="M9.78,17.41c1.14,10.9,2.23,21.38,3.32,31.86C8.46,39.16,4.6,28.98,9.78,17.41z"/>
	<path class="st0" d="M89.08,114.3c-3.11,10.27-7.8,16.98-18.69,17.51C76.48,126.11,82.31,120.65,89.08,114.3z"/>
	<path class="st0" d="M433.14,46.47c1.08-10.06,2.09-19.36,3.16-29.27C440.51,27.6,438.85,36.81,433.14,46.47z"/>
	<path class="st0" d="M10.54,89.45c2.75,7.13,5.13,13.32,7.63,19.81C10.51,105.92,9.1,102.37,10.54,89.45z"/>
	<path class="st0" d="M435.1,90.46c0.2,7.15,2.62,15.16-7.36,19.1C430.35,102.78,432.72,96.62,435.1,90.46z"/>
</g>
</svg>
