<svg xmlns="http://www.w3.org/2000/svg" viewBox="0 0 320.29 62.58"><defs><style>.cls-1{fill:#fff;}</style></defs><g id="Vrstva_2" data-name="Vrstva 2"><g id="Vrstva_1-2" data-name="Vrstva 1"><path class="cls-1" d="M40.87,49.43h-11q-4.86-9-10.13-18t-10.89-18V49.43H0V1.71H11.84q5.21,8.22,10.28,17t9.79,17.49V1.71h9Z"/><path class="cls-1" d="M65.32,50.39A26.73,26.73,0,0,1,58,49.5a11.25,11.25,0,0,1-5.17-3,13.33,13.33,0,0,1-3.09-5.72,33.19,33.19,0,0,1-1-8.93,32.52,32.52,0,0,1,1-8.87,12.9,12.9,0,0,1,3.12-5.61,11.46,11.46,0,0,1,5.2-2.95,27.49,27.49,0,0,1,7.23-.85,28.09,28.09,0,0,1,7.32.85,11.44,11.44,0,0,1,5.24,2.95A12.9,12.9,0,0,1,81,23a32.52,32.52,0,0,1,1,8.87,33.19,33.19,0,0,1-1,8.93,13.16,13.16,0,0,1-3.12,5.72,11.53,11.53,0,0,1-5.24,3A27.17,27.17,0,0,1,65.32,50.39Zm0-30a14.31,14.31,0,0,0-3.73.41,4.48,4.48,0,0,0-2.4,1.65A7.9,7.9,0,0,0,57.89,26a38.29,38.29,0,0,0-.38,6,37.18,37.18,0,0,0,.38,5.89,8.23,8.23,0,0,0,1.3,3.53,4.58,4.58,0,0,0,2.4,1.71,13,13,0,0,0,3.73.45,13.79,13.79,0,0,0,3.8-.45,4.51,4.51,0,0,0,2.46-1.71,8.23,8.23,0,0,0,1.3-3.53A37.18,37.18,0,0,0,73.26,32a38.29,38.29,0,0,0-.38-6,7.9,7.9,0,0,0-1.3-3.49,4.41,4.41,0,0,0-2.46-1.65A15.22,15.22,0,0,0,65.32,20.4Z"/><path class="cls-1" d="M101.26,40.88q2.47-6.59,4.69-13.15t3.94-13.15h8.63Q116,23.14,112.73,32T106,49.43H95.51Q92.92,40.27,90,31.36T83.8,14.58h8.84q2.33,5.9,4.55,12.7T101.26,40.88Z"/><path class="cls-1" d="M126.12.07a14.83,14.83,0,0,1,2.29.14,3.17,3.17,0,0,1,1.51.58,2.4,2.4,0,0,1,.82,1.26A8.09,8.09,0,0,1,131,4.24c0,2-.36,3.3-1.06,3.87a6.19,6.19,0,0,1-3.8.86c-1.87,0-3.17-.28-3.87-.86s-1.06-1.86-1.06-3.87a7.71,7.71,0,0,1,.24-2.19,2.29,2.29,0,0,1,.82-1.26,3.13,3.13,0,0,1,1.5-.58A15.52,15.52,0,0,1,126.12.07Zm4.17,49.36H121.8V14.58h8.49Z"/><path class="cls-1" d="M146.52,49.43H138V16.57a37.08,37.08,0,0,1,3.59-1.17c1.35-.36,2.74-.68,4.18-1s2.91-.49,4.42-.65a40.73,40.73,0,0,1,4.31-.24,21.76,21.76,0,0,1,6.37.82,9.85,9.85,0,0,1,4.41,2.7,11.57,11.57,0,0,1,2.57,5A31.75,31.75,0,0,1,168.7,30V49.43h-8.49V30.88a29.78,29.78,0,0,0-.31-4.76,6.45,6.45,0,0,0-1.16-3,4.28,4.28,0,0,0-2.29-1.5,13.55,13.55,0,0,0-3.7-.41,24,24,0,0,0-6.23.82Z"/><path class="cls-1" d="M199.31,49.43q-6-8.62-9.55-13.21t-5-5.2V49.43h-8.5V0h8.5V31a46.93,46.93,0,0,0,4.89-5.31q3.47-4.14,8.59-11.13h10.07q-5.07,6.85-8.53,10.79a49.94,49.94,0,0,1-4.82,5q1.37.83,5.1,5.55t9.27,13.48Z"/><path class="cls-1" d="M242.24,14.58q-1.78,6-3.87,12.16T233.92,39.1q-2.37,6.15-5,12.11c-1.73,4-3.51,7.76-5.33,11.37h-9.45q1.37-2.46,2.87-5.51c1-2,1.94-4,2.81-5.92q-1.31-4.66-2.77-9.49T214,32.11q-1.58-4.72-3.22-9.17c-1.1-3-2.19-5.75-3.29-8.36h8.84q2.32,5.82,4.58,12.74T225,41q2.47-6.57,4.73-13.25c1.5-4.45,2.81-8.84,3.9-13.18Z"/><path class="cls-1" d="M247.51,39.64a17.59,17.59,0,0,1,2.64.17,3.5,3.5,0,0,1,1.67.69,2.84,2.84,0,0,1,.89,1.44,9.16,9.16,0,0,1,.28,2.5,11,11,0,0,1-.28,2.73,3.26,3.26,0,0,1-.89,1.61,3.3,3.3,0,0,1-1.67.79,14,14,0,0,1-2.64.21,12.33,12.33,0,0,1-2.5-.21,3,3,0,0,1-2.5-2.4,11.06,11.06,0,0,1-.27-2.73,9.22,9.22,0,0,1,.27-2.5,2.84,2.84,0,0,1,.89-1.44,3.45,3.45,0,0,1,1.61-.69A15.54,15.54,0,0,1,247.51,39.64Z"/><path class="cls-1" d="M287,48.61a18.27,18.27,0,0,1-2.36.76,26.55,26.55,0,0,1-2.74.54c-.93.14-1.88.25-2.84.35s-1.85.13-2.67.13a26.65,26.65,0,0,1-7.15-.89,12.84,12.84,0,0,1-5.45-3,13.46,13.46,0,0,1-3.45-5.72,28.49,28.49,0,0,1-1.2-8.93,27.91,27.91,0,0,1,1.2-8.87,13.23,13.23,0,0,1,3.45-5.61,12.73,12.73,0,0,1,5.45-2.95,27.55,27.55,0,0,1,7.15-.85c.82,0,1.72,0,2.71.13s1.95.21,2.91.35a27.23,27.23,0,0,1,2.74.51,19.66,19.66,0,0,1,2.25.65l-1.91,7.26a25,25,0,0,0-3.8-1.06A21,21,0,0,0,277,21a19.06,19.06,0,0,0-4,.38,5.46,5.46,0,0,0-2.84,1.54,7.31,7.31,0,0,0-1.68,3.32,24.15,24.15,0,0,0-.55,5.78,23.37,23.37,0,0,0,.55,5.65A7.58,7.58,0,0,0,270.14,41,5.63,5.63,0,0,0,273,42.59a17.7,17.7,0,0,0,4,.41,19.43,19.43,0,0,0,4.31-.48,23.73,23.73,0,0,0,3.77-1.16Z"/><path class="cls-1" d="M320.29,14.58v1.71c-1.23,2-2.65,4.21-4.25,6.58s-3.21,4.74-4.86,7.08-3.24,4.59-4.79,6.72-2.9,3.91-4,5.37h17.46v7.39H289.07V47.72q2.46-3.15,5.17-6.78t5.17-7.15q2.46-3.52,4.52-6.61c1.36-2.05,2.48-3.79,3.35-5.2h-17v-7.4Z"/></g></g></svg>