<svg xmlns="http://www.w3.org/2000/svg" viewBox="0 0 246.58 90.77"><defs><style>.cls-1{fill:#fff;}</style></defs><g id="Vrstva_2" data-name="Vrstva 2"><g id="Vrstva_1-2" data-name="Vrstva 1"><path class="cls-1" d="M187.94,81.5c.1-.7-.4-.5-1.4-1.2-5.5-4.2-8.1-6.4-9.5-12.1-1.3-5.2,2.8-13.4,4.1-16.5.3-.7,1-1.2.5-1.4s-.5.5-1.1,1.1c-1.5,2-8.1,10.2-12.7,11.6-5.5,1.8-14.7-3.1-17.4-4.2-1.1-.4-.8.2-.4.6,5.5,4.2,11.2,7.9,12.2,13.2s-2.9,13.7-4.4,16.6c-.4.7-1,1.2-.6,1.5.6.3.7-.4,1.2-1.2,4.5-5.9,8.3-11.7,13.3-12.4,4.7-.7,11.8,2.7,14.3,3.8,1.4.5,1.4,1,1.9.6M16.24,74c8.3,0,13.1-.2,16.1-3.4A11.45,11.45,0,0,0,35,64.8c1.2-6.4,2.1-13,3.2-19.5.9-5.7,0-9.4-5.2-12.6-3.4-2-6.6-3.8-9.6-5.6-2.1-1.3-1.5-4-1-7.3.2-1.4.4-2.8.7-4.2.3-1.7.5-3.6,2.7-3.6h.4a1.54,1.54,0,0,1,1.6,1.3c.1.8,0,1.8-1.3,9.4a2.7,2.7,0,0,0,2.8,3.3h8.9A3.81,3.81,0,0,0,42,22.7s1.7-10.3,1.8-12c.3-4.2-.1-6.3-1.6-7.9C39.54-.2,31.94,0,27,0c-8.2,0-12,.2-15,3.1-2.3,2.1-3.5,6.1-4.4,12-.5,2.9-.9,5.7-1.4,8.5-1,6.3.1,10.3,4.7,13.1,3.2,1.9,6.6,4,10.2,6.2a3.13,3.13,0,0,1,1.5,3.2c-.2,1.6-.4,3.4-.6,4.7l-1.4,8.9c-.3,1.8-1.3,2.2-2.7,2.2-.9,0-1.5-.3-1.7-.9s-.2-1.5.4-5.8c.4-2.7.9-5.5,1.3-7.9a2.64,2.64,0,0,0-2.5-3.2H5.94c-2.1,0-3.2,1.5-3.5,3.3L.64,58.8a32.27,32.27,0,0,0-.5,8.9c.8,5.5,5.3,6.3,16.1,6.3m186.4-61.6c-1.5,0-2.8.1-4,.2,1.2-.1,2.5-.2,4-.2m-118.4.3a4.15,4.15,0,0,0-3.9,3.3c-2.8,18.2-6,36.3-8.6,54.5a2.65,2.65,0,0,0,2.8,2.9h6.3a4,4,0,0,0,3.8-2.9c1.1-6,2-12.2,2.8-17.4h3.1c12-.1,14-2.3,15.6-12.6,1.5-9.6,1.6-10.4,2.4-15.2,1.7-10.8.1-12.6-12.9-12.6Zm8,9.8h1.5c2.3,0,2,1.6,1.7,3.3-.8,5.1-1.6,10.1-2.4,15.2-.3,1.8-1.4,2.3-2.9,2.3h-1.2c1.1-6.9,2.2-13.9,3.3-20.8"/><path class="cls-1" d="M141.94,12.7a4.18,4.18,0,0,0-3.8,2.9l-8.7,54.6v.3a2.73,2.73,0,0,0,2.9,2.9h6.3a4,4,0,0,0,3.8-3.2l1.4-8.8,1.4-8.8.5-3.2h.8c3.2,0,2.8,2,2.4,4.4-.9,5.5-1.8,11-2.7,16.4a3,3,0,0,0,2.8,3.3h6.3a4.18,4.18,0,0,0,3.8-2.9v-.3l2.6-16.5c.1-.4.1-.7.2-1.1.6-5.1-.4-7.6-4.6-8.8a.76.76,0,0,0,.5-.2,4917165483605.38,4917165483605.38,0,0,1,.4-.2c5.2-2.1,6-5.5,7-11.9.4-2.2.7-4.4,1-6.3,1.8-11.1.1-12.6-12.9-12.6Zm8,9.8h2c1.5,0,1.7.7,1.5,1.9,0,0-1.3,8-1.8,11.3-.3,2-.9,2.3-2.9,2.3h-1.2c.8-5.2,1.7-10.9,2.4-15.5M205,12.3c-8.7,0-12.5.6-14.5,4.2-1.4,2.6-1.9,6-2.3,8.4l-5.8,36.3c-.9,5.7-.9,8.9,1,10.6,1.1,1.1,2.3,1.4,4.2,1.7a56.24,56.24,0,0,0,7.6.4c13,0,15.1-1.5,16.8-12.7.6-3.7,1.3-7.4,1.7-10.6a2.68,2.68,0,0,0-2.9-2.9h-6.3a3.65,3.65,0,0,0-3.8,2.9c-1.2,7.3-1.8,11.3-1.8,11.3a2.11,2.11,0,0,1-2.2,2,1.26,1.26,0,0,1-1.4-.9,5.28,5.28,0,0,1,0-2.2l.5-3.3,5.1-32.3c.3-1.9.6-3,2.1-3,1.9,0,1.8,1.6,1.6,3-.3,1.7-.5,3.4-.8,4.8a2.59,2.59,0,0,0,2.5,3.2h6.9a3.82,3.82,0,0,0,3.5-3.2l.8-5.2c2.2-11.3.3-12.5-12.5-12.5m-154.3.4a4.18,4.18,0,0,0-3.8,2.9.76.76,0,0,1-.1.4c-2.2,15.7-5.5,31.7-7.5,47.4-.1.6-.1,1.2-.2,1.8-.3,3.4.1,5.5,1.5,6.7a5.55,5.55,0,0,0,.8.6c2,1.2,5.5,1.4,11.1,1.4h1.2c11.9,0,13.9-1.8,15.6-12.6l.5-3.2L76.54,16c.3-2.4-1-3.3-2.8-3.3h-6.3a4,4,0,0,0-3.8,2.9l-7.4,46.3A2,2,0,0,1,54,63.8a1.27,1.27,0,0,1-1.4-1.1,40.81,40.81,0,0,1,.5-5.1l3.3-20.8L59.74,16a2.78,2.78,0,0,0-2.8-3.3Zm36.1,43.6-2.2,14.1c0-.1,0-.2.1-.2l2.1-13.9Zm30.8-43.6a3.46,3.46,0,0,0-3.8,3.3l-8.6,54.2a2.78,2.78,0,0,0,2.8,3.3h13.9a4.05,4.05,0,0,0,3.8-3.2c.2-1.1.4-2.2.5-3.4a2.78,2.78,0,0,0-2.8-3.3h-4.3c1-6.2,2-12.3,2.9-18.5h4.3a4.08,4.08,0,0,0,3.8-2.9,29.82,29.82,0,0,0,.6-4,2.68,2.68,0,0,0-2.9-2.9h-4.3c.7-4.2,1.4-8.4,2-12.6h4.7a4,4,0,0,0,3.4-2.9,29.82,29.82,0,0,0,.6-4,2.73,2.73,0,0,0-2.9-2.9h-13.7Zm109.7,0a4,4,0,0,0-3.8,3.3l-.6,3.9a2.9,2.9,0,0,0,2.5,3.3h6.4c-5.2,12.2-10.5,24.5-15.8,36.7a34.8,34.8,0,0,0-1.8,6.3c-.2,1.4-.5,2.9-.7,4.4a2.73,2.73,0,0,0,2.9,2.9h17.7a4,4,0,0,0,3.8-3.3l.7-4a2.78,2.78,0,0,0-2.8-3.3h-7.6L244.14,26a35.21,35.21,0,0,0,1.8-6.1l.6-3.9a2.7,2.7,0,0,0-2.8-3.2h-16.4Z"/></g></g></svg>