<svg xmlns="http://www.w3.org/2000/svg" viewBox="0 0 1166.36 398.97"><defs><style>.cls-1{fill:#fff;}</style></defs><g id="Vrstva_2" data-name="Vrstva 2"><g id="Vrstva_1-2" data-name="Vrstva 1"><path class="cls-1" d="M8.87,398.42,79.44,290.06s-90,16.71-78.4-67a99.54,99.54,0,0,1,15.55-40.73L136.13,0H263.94l46.68,69.05v44L247.69,23.34l-12.5,20.84L311,158v42.51l-90-135L209.34,83.77,310.61,245.05v43.34L193.92,106.69l-56.3,86a61.74,61.74,0,0,0-8.56,19.86c-6,25.91-9.19,82.69,79.86,77.53L141.68,399Z"/><path class="cls-1" d="M191.69,277.42a51.18,51.18,0,1,0-51.06-51.18A51.13,51.13,0,0,0,191.69,277.42Z"/><path class="cls-1" d="M460.23,135q7.71,10.71,7.7,25.65,0,15.39-7.76,24.73-4.34,5.25-12.78,9.58,12.87,4.66,19.41,14.81t6.55,24.6a49.14,49.14,0,0,1-7.47,26.77A46.24,46.24,0,0,1,435,282.78a116.27,116.27,0,0,1-23.73,2.28H335.61V117.11h81.12Q447.43,117.56,460.23,135Zm-91.07,11.07v37.3h40.58q10.88,0,17.65-4.19t6.78-14.86q0-11.82-9-15.61-7.74-2.64-19.73-2.64Zm0,65v45H409.9q10.92,0,17-3,11-5.49,11-21.07,0-13.17-10.69-18.1-6-2.74-16.77-2.86Z"/><path class="cls-1" d="M608,269.83q-15.72,19.4-47.73,19.4t-47.73-19.4q-15.72-19.4-15.72-46.71,0-26.85,15.72-46.53t47.73-19.69q32,0,47.73,19.69t15.72,46.53Q623.74,250.44,608,269.83ZM581.94,252q7.6-10.12,7.61-28.79t-7.61-28.74q-7.62-10.06-21.82-10.07t-21.87,10.07q-7.66,10.06-7.67,28.74T538.25,252q7.66,10.12,21.87,10.13T581.94,252Z"/><path class="cls-1" d="M719.28,158c.42,0,1.35.09,2.79.16V191.5c-2.05-.25-3.87-.41-5.46-.5s-2.88-.13-3.87-.13q-19.57,0-26.29,12.76-3.76,7.17-3.76,22.1v59.34H650.18V160.87H681v21.68q7.5-12.41,13.08-17,9.09-7.64,23.65-7.63C718.35,158,718.86,158,719.28,158Z"/><path class="cls-1" d="M806.25,160.79q11.82,4.89,19.11,18v-17.9H857V278.7q0,24-8.09,36.24-13.91,21-53.32,21-23.82,0-38.86-9.35t-16.63-27.95h35.42q1.37,5.73,4.44,8.24,5.24,4.47,17.64,4.47,17.52,0,23.44-11.71,3.87-7.5,3.87-25.23v-8q-4.68,7.93-10,11.9-9.69,7.37-25.18,7.37-23.93,0-38.22-16.81t-14.3-45.52q0-27.69,13.76-46.55T790,158A42.83,42.83,0,0,1,806.25,160.79ZM817.15,250q7.79-8.62,7.79-27.47,0-17.7-7.4-27t-19.81-9.25q-16.93,0-23.37,16.11Q771,211,771,223.53a48.67,48.67,0,0,0,3.61,19.3q6.54,15.77,23.49,15.77A24.75,24.75,0,0,0,817.15,250Z"/><path class="cls-1" d="M924.12,146.07H891.2v-30h32.92Zm-32.93,14.8h32.92V285.06H891.19Z"/><path class="cls-1" d="M984.33,245.47q1,8.64,4.45,12.27,6.06,6.48,22.38,6.48,9.58,0,15.24-2.84t5.65-8.53a9.22,9.22,0,0,0-4.49-8.3q-4.49-2.84-33.91-9.79-21.18-5.23-29.84-13.08t-8.66-22.29q0-17.17,13.54-29.51t38.1-12.34q23.31,0,38,9.26t16.85,32h-32.51q-.69-6.24-3.54-9.88-5.37-6.58-18.28-6.58-10.63,0-15.14,3.29t-4.51,7.72a8.46,8.46,0,0,0,4.8,8.07q4.8,2.61,33.86,9,19.38,4.56,29.07,13.77T1065,247.5q0,18.42-13.75,30.08t-42.52,11.66q-29.33,0-43.32-12.33t-14-31.43Z"/><rect class="cls-1" x="1079.11" y="261.73" width="83.35" height="26.67"/><rect class="cls-1" x="1079.11" y="213.38" width="83.35" height="26.67"/><rect class="cls-1" x="1079.11" y="161.7" width="83.35" height="26.67"/><path class="cls-1" d="M978.82,346.14a26.72,26.72,0,0,0,6.67-1.46q3.6-1.53,3.6-4.76,0-3.93-2.75-5.43t-8.08-1.5q-6,0-8.47,2.92a12.11,12.11,0,0,0-2.37,5.83H951.27q.53-8.37,4.71-13.76,6.64-8.43,22.8-8.43a40.61,40.61,0,0,1,18.7,4.18q8.16,4.18,8.17,15.75v29.35q0,3,.12,7.4a9.17,9.17,0,0,0,1,4.43,5.85,5.85,0,0,0,2.45,1.92v2.5H991.05a18.78,18.78,0,0,1-1.06-3.62c-.19-1.13-.35-2.41-.47-3.86a34.59,34.59,0,0,1-8,6.37,24.25,24.25,0,0,1-12.24,3.09q-8.71,0-14.39-5T949.2,368q0-11.8,9.15-17.08,5-2.88,14.76-4.11Zm10.22,7.8a18.07,18.07,0,0,1-3.23,1.62,28.27,28.27,0,0,1-4.47,1.15l-3.79.71a24.94,24.94,0,0,0-7.69,2.3,7.65,7.65,0,0,0-4,7.13q0,4.31,2.41,6.22a9.12,9.12,0,0,0,5.87,1.91,17.45,17.45,0,0,0,10.1-3.18q4.62-3.18,4.8-11.61v-6.25Z"/><path class="cls-1" d="M1018.8,367.58h17.71v17.5H1018.8Z"/><path class="cls-1" d="M1096.44,364.66c.35,3,1.12,5.09,2.29,6.34q3.12,3.35,11.53,3.35a17.58,17.58,0,0,0,7.85-1.47,4.92,4.92,0,0,0,.57-8.68q-2.34-1.47-17.46-5-10.89-2.69-15.34-6.74t-4.45-11.5a20,20,0,0,1,7-15.23q7-6.36,19.58-6.37,12,0,19.51,4.8t8.66,16.56h-16.67a9.93,9.93,0,0,0-1.82-5.13q-2.76-3.42-9.41-3.42-5.48,0-7.8,1.71a4.92,4.92,0,0,0-2.33,4,4.39,4.39,0,0,0,2.47,4.18q2.48,1.35,17.44,4.62,10,2.34,15,7.08a16.07,16.07,0,0,1,4.93,12,19.38,19.38,0,0,1-7.08,15.5q-7.08,6-21.88,6-15.11,0-22.29-6.37a20.72,20.72,0,0,1-7.19-16.24h17Z"/><path class="cls-1" d="M1148.65,367.58h17.71v17.5h-17.71Z"/></g></g></svg>