<svg xmlns="http://www.w3.org/2000/svg" viewBox="0 0 282.35 42.14"><defs><style>.cls-1{isolation:isolate;}.cls-2{fill:#fff;}</style></defs><g id="Vrstva_2" data-name="Vrstva 2"><g id="Layer_1" data-name="Layer 1"><g id="Group_128" data-name="Group 128"><g class="cls-1"><path class="cls-2" d="M46.6,41.77l-4.14-13H39.75v13H34.34V9.14h8.44c4.94,0,8.21,2,8.21,6.9v5.82C51,25,49.68,27,47.44,27.93l4.67,13.84ZM39.75,24.1H42.6c1.77,0,3-.65,3-3V16.88c0-2.33-1.21-3-3-3H39.75Z"/><path class="cls-2" d="M57.19,41.77V9.14H71.5v4.75H62.59v9h7.46V27.6H62.59V37h9v4.75Z"/><path class="cls-2" d="M87.16,20.79V16.22a2.75,2.75,0,1,0-5.5,0v2.24c0,1.68.56,2.43,2.1,3.31l3.82,2.15c3.13,1.77,5,3.21,5,6.71v4.71c0,5-3.12,6.8-8.06,6.8h-.1c-4.94,0-8.06-1.72-8.06-6.8V29.65h5.31v4.94a2.8,2.8,0,1,0,5.6,0V32c0-1.68-.52-2.52-2.15-3.41l-3.77-2.14c-3.18-1.82-5-3.31-5-6.71V15.48c0-4.85,3.54-6.72,8-6.72h.09c4.47,0,8,1.87,8,6.72v5.31Z"/><path class="cls-2" d="M106.32,8.76h.38c4.94,0,8.2,2,8.2,6.9V35.24c0,4.95-3.26,6.9-8.2,6.9h-.38c-4.94,0-8.2-2-8.2-6.9V15.66C98.12,10.68,101.38,8.76,106.32,8.76Zm.19,28.63c1.77,0,3-.65,3-3V16.5c0-2.33-1.21-3-3-3s-3,.65-3,3V34.41C103.53,36.74,104.74,37.39,106.51,37.39Z"/><path class="cls-2" d="M133.45,41.77l-4.14-13H126.6v13h-5.41V9.14h8.44c4.94,0,8.21,2,8.21,6.9v5.82c0,3.13-1.31,5.09-3.55,6.07L139,41.77ZM126.6,24.1h2.85c1.77,0,3-.65,3-3V16.88c0-2.33-1.21-3-3-3H126.6Z"/><path class="cls-2" d="M158.21,13.89h-5.45V41.77h-5.41V13.89h-5.46V9.14h16.32Z"/><path class="cls-2" d="M181.8,20.79V16.22a2.75,2.75,0,1,0-5.5,0v2.24c0,1.68.56,2.43,2.09,3.31l3.83,2.15c3.12,1.77,5,3.21,5,6.71v4.71c0,5-3.13,6.8-8.07,6.8h-.09c-4.94,0-8.07-1.72-8.07-6.8V29.65h5.32v4.94a2.8,2.8,0,1,0,5.59,0V32a3.33,3.33,0,0,0-2.14-3.41L176,26.48c-3.17-1.82-5-3.31-5-6.71V15.48c0-4.85,3.54-6.72,8-6.72h.09c4.48,0,8,1.87,8,6.72v5.31Z"/><path class="cls-2" d="M202.82,41.77h-6L190.7,9.14h5.5L200,33.33l3.78-24.19H209Z"/><path class="cls-2" d="M213.5,41.77V9.14h14.31v4.75h-8.9v9h7.45V27.6h-7.45V37h9v4.75ZM222.17,0l-1.59,3.22L219,0h-4.38l3.77,6.57h4.38L226.55,0Z"/><path class="cls-2" d="M248,13.89h-5.45V41.77h-5.41V13.89h-5.45V9.14H248Z"/></g><g id="Group_117" data-name="Group 117"><g id="Group_48" data-name="Group 48"><path id="Path_63" data-name="Path 63" class="cls-2" d="M282.35,25v-.16a8.51,8.51,0,0,0-16.29-3h0a7.22,7.22,0,0,0-.35,1h0a7,7,0,0,0-.23,1,0,0,0,0,0,0,0,9,9,0,0,0-.09,1.27,8.49,8.49,0,1,0,17,0Zm-2-3.36,0,0a7.74,7.74,0,0,1,.78,2.09l-.81.8-1.46-1.46Zm-5.81,1.46L276,21.67l1.46,1.46L276,24.6Zm.74,2.18-1.46,1.46-1.46-1.46,1.46-1.46Zm-1.46-2.89L272.39,21l1.46-1.46L275.31,21Zm-.71.71-1.47,1.47-1.46-1.47,1.46-1.46ZM271,25.31l-1.46,1.46L268,25.31l1.46-1.46Zm.72.72,1.46,1.46L271.68,29l-1.46-1.46Zm2.17,2.18,1.46,1.46-1.46,1.46-1.46-1.46Zm.72-.72L276,26l1.46,1.46L276,29Zm2.18-2.18,1.46-1.46,1.46,1.46-1.46,1.46ZM279.66,21l-1.46,1.46L276.74,21l1.46-1.46Zm-4.29-3a7.4,7.4,0,0,1,2.09.77l0,0L276,20.24l-1.47-1.46Zm-1.52-.15h.24l-.24.23-.23-.23h.23Zm-3.61.93a7.24,7.24,0,0,1,2.09-.78l.8.8-1.46,1.46-1.46-1.46Zm-.74.74L271,21l-1.46,1.46L268,21Zm-2.2,2.2,0,0,1.47,1.46-1.47,1.46-.8-.8a7.37,7.37,0,0,1,.78-2.1Zm-.93,3.61v-.23l.24.23-.24.24v-.24Zm.95,3.64,0,0a7.13,7.13,0,0,1-.78-2.09l.8-.8,1.46,1.46Zm.72.72,1.46-1.47L271,29.67l-1.46,1.46Zm4.29,3a7.34,7.34,0,0,1-2.08-.77l0,0,1.46-1.46,1.46,1.46Zm1.52.16h-.23l.23-.23.24.23h-.24Zm3.61-.93a7.4,7.4,0,0,1-2.09.77l-.8-.8L276,30.38l1.46,1.46Zm.75-.75-1.47-1.46,1.47-1.46,1.46,1.46Zm2.2-2.2,0,0-1.46-1.46L280.38,26l.8.8a7.52,7.52,0,0,1-.77,2.09Zm.92-3.37-.23-.24.23-.23c0,.08,0,.15,0,.23v.23Z"/></g></g><g id="Group_118" data-name="Group 118"><g id="Group_48-2" data-name="Group 48-2"><path id="Path_63-2" data-name="Path 63-2" class="cls-2" d="M17,25c0-.05,0-.1,0-.16a8.5,8.5,0,0,0-16.28-3h0a8.8,8.8,0,0,0-.36,1h0a7,7,0,0,0-.23,1,0,0,0,0,1,0,0A9,9,0,0,0,0,25.24a8.5,8.5,0,1,0,17,0Zm-2-3.36,0,0a7.4,7.4,0,0,1,.77,2.09l-.8.8-1.46-1.46ZM9.21,23.13l1.46-1.46,1.46,1.46L10.67,24.6ZM10,25.31,8.49,26.77,7,25.31l1.46-1.46ZM8.49,22.42,7,21,8.49,19.5,10,21Zm-.72.71L6.31,24.6,4.85,23.13l1.46-1.46ZM5.59,25.31,4.13,26.77,2.67,25.31l1.46-1.46Zm.72.72,1.46,1.46L6.31,29,4.85,27.49Zm2.18,2.18L10,29.67,8.49,31.13,7,29.67Zm.71-.72L10.67,26l1.46,1.46L10.67,29Zm2.18-2.18,1.46-1.46,1.46,1.46-1.46,1.46ZM14.3,21l-1.46,1.46L11.38,21l1.46-1.46ZM10,18a7.34,7.34,0,0,1,2.08.77l0,0-1.46,1.46L9.2,18.78Zm-1.52-.15h.23l-.23.23-.24-.23h.24Zm-3.61.93A7,7,0,0,1,7,18l.8.8L6.31,20.24,4.84,18.78Zm-.75.74L5.59,21,4.13,22.42,2.67,21Zm-2.2,2.2,0,0,1.46,1.46L2,24.6l-.8-.8a7.35,7.35,0,0,1,.77-2.1ZM1,25.31a1.77,1.77,0,0,1,0-.23l.23.23L1,25.55c0-.09,0-.16,0-.24ZM2,29l0,0a7.74,7.74,0,0,1-.78-2.09L2,26l1.46,1.46Zm.71.72L4.14,28.2,5.6,29.67,4.14,31.13Zm4.3,3a7.4,7.4,0,0,1-2.09-.77l0,0,1.46-1.46,1.46,1.46Zm1.52.16H8.25l.24-.23.23.23H8.49Zm3.6-.93a7.34,7.34,0,0,1-2.08.77l-.8-.8,1.46-1.46,1.46,1.46Zm.75-.75-1.46-1.46,1.46-1.46,1.46,1.46Zm2.2-2.2,0,0-1.47-1.46L15,26l.8.8a7.52,7.52,0,0,1-.77,2.09ZM16,25.55l-.24-.24.24-.23v.46Z"/></g></g></g></g></g></svg>