<svg xmlns="http://www.w3.org/2000/svg" viewBox="0 0 178.91 86.47"><defs><style>.cls-1{fill:#fff;}</style></defs><g id="Vrstva_2" data-name="Vrstva 2"><g id="Vrstva_1-2" data-name="Vrstva 1"><path class="cls-1" d="M38.87,65,23.48,37.16a19.72,19.72,0,0,0,9.2-6.8A17.57,17.57,0,0,0,36,19.7Q36,10.08,30,5T13,0H0V7.06H15.81a13.7,13.7,0,0,1,7.87,3.29q3.63,3.26,3.63,9.33A11.25,11.25,0,0,1,23.5,28.6q-3.8,3.34-10.23,3.34"/><path class="cls-1" d="M67,65l-5.4-7.8h-6V65H49.16V37H61.28a15.51,15.51,0,0,1,6.46,1.24A9.61,9.61,0,0,1,72,41.72a9.75,9.75,0,0,1,1.48,5.4A9.12,9.12,0,0,1,67.68,56L74,65ZM65.36,43.5a6.83,6.83,0,0,0-4.44-1.26H55.64V52h5.28a6.77,6.77,0,0,0,4.44-1.28,4.48,4.48,0,0,0,1.52-3.6A4.44,4.44,0,0,0,65.36,43.5Z"/><path class="cls-1" d="M107.19,60.6V65h-21V37h20.45v4.36H91.4V48.6h13.52v4.28H91.4V60.6Z"/><path class="cls-1" d="M129.63,51.16l-6.28,6.44V65h-2V37h2V55l17.48-18h2.48L131,49.68,144.15,65h-2.48Z"/><path class="cls-1" d="M174.07,56.52H157L153,65h-.92l13-28h.8l13,28H178Zm-.36-.76L165.51,38l-8.2,17.72Z"/><path class="cls-1" d="M58.27,80.84h.78V85a4.76,4.76,0,0,1-1.78,1.07,6.55,6.55,0,0,1-2.22.37,6.11,6.11,0,0,1-3-.73,5.33,5.33,0,0,1-2.09-2,6,6,0,0,1,0-5.82,5.37,5.37,0,0,1,2.09-2,6.17,6.17,0,0,1,3-.74,6.31,6.31,0,0,1,2.26.39,5,5,0,0,1,1.77,1.15l-.51.54a4.14,4.14,0,0,0-1.58-1,5.62,5.62,0,0,0-1.93-.32,5.41,5.41,0,0,0-2.6.64,4.74,4.74,0,0,0-1.81,1.77A4.89,4.89,0,0,0,50,80.79a4.85,4.85,0,0,0,2.48,4.28,5.24,5.24,0,0,0,2.59.65,4.92,4.92,0,0,0,3.19-1Z"/><path class="cls-1" d="M87.93,86.39l-2.67-3.74a8.75,8.75,0,0,1-1.09.08H81v3.66h-.81V75.19h4a5,5,0,0,1,3.31,1A3.42,3.42,0,0,1,88.68,79a3.41,3.41,0,0,1-2.62,3.5l2.8,3.92ZM84.17,82a4.2,4.2,0,0,0,2.74-.79,3.16,3.16,0,0,0,0-4.5,4.15,4.15,0,0,0-2.74-.79H81V82Z"/><path class="cls-1" d="M111,85.73a5.61,5.61,0,0,1-2.09-2,5.89,5.89,0,0,1,0-5.79,5.46,5.46,0,0,1,2.09-2,6.31,6.31,0,0,1,6,0,5.37,5.37,0,0,1,2.09,2,6,6,0,0,1,0,5.82,5.33,5.33,0,0,1-2.09,2,6,6,0,0,1-3,.73A6.07,6.07,0,0,1,111,85.73Zm5.52-.65a4.68,4.68,0,0,0,1.79-1.77,5.14,5.14,0,0,0,0-5,4.68,4.68,0,0,0-1.79-1.77,5.12,5.12,0,0,0-2.54-.64,5.19,5.19,0,0,0-2.55.64,4.64,4.64,0,0,0-1.8,1.77,5.14,5.14,0,0,0,0,5,4.64,4.64,0,0,0,1.8,1.77,5.08,5.08,0,0,0,2.55.64A5,5,0,0,0,116.49,85.08Z"/><path class="cls-1" d="M141.2,85.24a5,5,0,0,1-1.17-3.6V75.19h.81v6.42a4.45,4.45,0,0,0,.95,3.09,4.15,4.15,0,0,0,5.45,0,4.45,4.45,0,0,0,.95-3.09V75.19H149v6.45a5,5,0,0,1-1.18,3.6,5.07,5.07,0,0,1-6.62,0Z"/><path class="cls-1" d="M177.66,76.19a3.8,3.8,0,0,1,0,5.54,5,5,0,0,1-3.31,1h-3.2v3.66h-.82V75.19h4A5,5,0,0,1,177.66,76.19Zm-.57,5A2.77,2.77,0,0,0,178,79a2.81,2.81,0,0,0-.94-2.25,4.16,4.16,0,0,0-2.74-.79h-3.2V82h3.2A4.22,4.22,0,0,0,177.09,81.21Z"/></g></g></svg>