<svg xmlns="http://www.w3.org/2000/svg" viewBox="0 0 467.3 73.8"><defs><style>.cls-1{fill:#fff;}</style></defs><g id="Vrstva_2" data-name="Vrstva 2"><g id="Vrstva_1-2" data-name="Vrstva 1"><path class="cls-1" d="M113.8.1,69,.3V73.8H84.1V49.2h29.7a9.66,9.66,0,0,0,7.2-3,9.82,9.82,0,0,0,3-7.2V10.3a9.66,9.66,0,0,0-3-7.2,9.51,9.51,0,0,0-7.2-3Zm-29.7,34V15.2H109V34.1ZM179.8.1H145.2a9.66,9.66,0,0,0-7.2,3,9.82,9.82,0,0,0-3,7.2V63.6a9.66,9.66,0,0,0,3,7.2,9.82,9.82,0,0,0,7.2,3h34.6a9.66,9.66,0,0,0,7.2-3,9.82,9.82,0,0,0,3-7.2V10.3a9.66,9.66,0,0,0-3-7.2,9.66,9.66,0,0,0-7.2-3Zm-4.9,58.6H150V15.2h24.9ZM3.1,3a9.82,9.82,0,0,0-3,7.2V31.5a9.59,9.59,0,0,0,3.1,7.2,12.61,12.61,0,0,0,6.5,3L40,46.8V58.7H0V73.8H44.8a9.66,9.66,0,0,0,7.2-3,9.82,9.82,0,0,0,3-7.2V42.3a9.59,9.59,0,0,0-3.1-7.2,12.61,12.61,0,0,0-6.5-3L15.1,27V15.1h40V0H10.3A10.67,10.67,0,0,0,3.1,3Z"/><path class="cls-1" d="M354.6,3a9.82,9.82,0,0,0-3,7.2V63.5a9.66,9.66,0,0,0,3,7.2,9.82,9.82,0,0,0,7.2,3h40.6V58.6H366.7V15.1h35.7V0H361.8A10.67,10.67,0,0,0,354.6,3Zm112.7,9.1V0h-55V15.1h35.5l-.2.2c-1.9,2.3-32.5,39.2-33.1,40a12.75,12.75,0,0,0-1.5,2.5,9.83,9.83,0,0,0-.8,4V73.7h55V58.6H430.5c.1-.2,27.4-32.1,34.2-40A8.82,8.82,0,0,0,467.3,12.1Z"/><path class="cls-1" d="M268.8,15.2h18.5V73.8h15V15.2h18.6V.1H268.8ZM252.4,48.9h0Zm-3.2.3a11.27,11.27,0,0,0,3.2-.5,10.34,10.34,0,0,0,4.1-2.5,9.82,9.82,0,0,0,3-7.2V10.3a9.66,9.66,0,0,0-3-7.2,9.82,9.82,0,0,0-7.2-3H204.5V73.8h15.1V49.2h9.3l14.9,24.6h17.5L246.6,49.2Zm-4.9-15.1H219.4V15.2h24.9Z"/><path class="cls-1" d="M321.9,58.7H337V73.8H321.9Z"/></g></g></svg>